<svg width="105" height="91" viewBox="0 0 105 91" fill="none" xmlns="http://www.w3.org/2000/svg">
<g clip-path="url(#clip0_277_39)">
<path d="M51.9669 0C52.6896 0.475568 52.8629 1.1625 52.8534 1.98821C52.8232 4.65834 52.8436 7.32902 52.8397 9.99943C52.8391 10.2948 52.8478 10.5996 52.7809 10.8833C52.6075 11.6178 52.1134 11.9882 51.3531 11.9626C50.5865 11.9367 50.0386 11.511 50.0282 10.7768C49.9829 7.5732 49.9812 4.36827 50.0515 1.16556C50.0602 0.771198 50.5969 0.388241 50.889 0C51.2484 0 51.6075 0 51.9669 0Z" fill="white"/>
<path d="M60.6016 67.3449C65.2826 67.3807 67.624 72.7352 64.4562 76.075C66.1643 77.9431 66.4055 80.03 65.1761 82.2134C63.9296 84.4272 61.8089 84.8802 59.456 84.6744C59.3453 85.3458 59.2935 85.9348 59.147 86.4997C58.4851 89.053 56.1801 90.9274 53.5289 90.9625C49.8177 91.0117 46.1046 91.0134 42.3934 90.9647C39.35 90.9249 36.8962 88.5699 36.5492 85.4748C36.5234 85.2454 36.515 85.014 36.4901 84.6689C34.0713 84.888 31.9696 84.3949 30.6814 82.1578C29.5419 80.1788 29.8047 78.1005 31.4374 76.0689C28.9657 73.4922 29.6604 68.9788 33.5783 67.5345C33.1282 66.7783 32.6979 65.9991 32.2038 65.2624C32.0727 65.0671 31.7453 64.8925 31.5083 64.8928C26.2221 64.9042 22.2285 60.6666 21.8963 55.9818C21.8078 54.7329 22.0577 53.4605 22.1596 52.1011C18.1891 50.0592 15.9922 46.7019 16 42.0903C16.0079 37.5148 18.1796 34.1747 22.3319 32.033C21.7977 30.314 21.6675 28.57 22.1117 26.7926C23.1949 22.4604 26.8955 19.4616 31.3767 19.367C31.8705 19.3565 32.1038 19.2249 32.3187 18.7811C34.1046 15.09 37.6758 13.3779 41.6701 14.2629C45.4962 15.1106 48.0197 18.219 48.0267 22.2549C48.0496 35.5138 48.0314 48.7727 48.0379 62.0318C48.0387 64.0075 47.339 65.7296 46.0838 67.3679H49.9911V66.2741C49.9911 50.1018 49.9911 33.9294 49.9914 17.7571C49.9914 15.1261 51.3381 13.8051 53.9728 14.0982C61.8887 14.9787 67.7862 19.0355 71.7324 25.795C77.2166 35.1887 75.2472 47.074 67.0926 54.3265C63.4288 57.5852 61.2204 61.5376 60.6896 66.4012C60.6577 66.6941 60.6344 66.988 60.6014 67.3451L60.6016 67.3449ZM35.0259 19.9703C35.1794 20.0434 35.3377 20.1152 35.4931 20.1933C37.0416 20.9698 38.3707 22.0124 39.3472 23.4472C40.0419 24.4678 39.9856 25.2415 39.2587 25.7182C38.4035 26.2792 37.7662 26.0992 36.9906 25.0897C36.6648 24.6656 36.3772 24.1939 35.9819 23.8446C33.8114 21.9254 30.7711 21.6653 28.2265 23.1413C25.5621 24.6867 24.2355 27.5518 24.8369 30.3877C24.9669 31.0006 25.1775 31.2699 25.8913 31.2323C28.2632 31.1069 30.2797 31.9679 31.9411 33.6396C32.7343 34.4378 32.8167 35.3033 32.2019 35.909C31.5576 36.5437 30.7635 36.4516 29.9374 35.6287C28.3094 34.0067 26.3969 33.6268 24.2501 34.3691C20.3975 35.701 18.1375 39.7369 18.9838 43.7923C19.5538 46.5242 21.0927 48.499 23.6868 49.6473C25.1411 48.0477 26.7467 46.7773 28.7313 46.0683C30.0212 45.6075 30.9397 45.9204 31.2425 46.8201C31.5346 47.6872 31.0226 48.3191 29.6767 48.7527C25.9557 49.951 23.9885 53.5245 25.024 57.2041C25.8456 60.1237 28.8705 62.3111 31.6049 61.9264C31.6296 61.7048 31.6442 61.4706 31.6828 61.2406C32.0139 59.2638 32.9993 57.7515 34.8831 56.9205C35.8436 56.4966 36.6091 56.7275 36.9727 57.4692C37.3545 58.2479 37.0377 58.9768 36.0556 59.4657C35.1481 59.9177 34.6632 60.638 34.515 61.6172C34.0229 64.8669 37.0329 67.8168 40.3889 67.3693C43.4998 66.9544 45.2583 64.8383 45.2597 61.4723C45.2642 48.5744 45.2628 35.6762 45.2567 22.7783C45.2567 22.2455 45.2216 21.7068 45.1385 21.1809C44.7785 18.9068 42.7976 17.1469 40.3685 16.9141C37.936 16.6811 35.7993 17.8911 35.0265 19.9714L35.0259 19.9703ZM57.7103 67.3816C58.1445 61.3199 60.5672 56.3495 65.0823 52.3372C70.7349 47.3137 72.8018 40.9931 71.5467 33.6004C70.0357 24.7017 62.8134 17.9234 53.8608 16.8793C52.9423 16.7723 52.8126 17.0785 52.8135 17.865C52.8297 34.0601 52.8255 50.255 52.8277 66.4502C52.8277 66.7608 52.8594 67.0715 52.8762 67.3818H57.7106L57.7103 67.3816ZM47.9264 81.8842C50.5012 81.8842 53.0756 81.8842 55.6504 81.8842C57.3568 81.8842 59.0636 81.9025 60.7697 81.8772C62.1201 81.8572 63.0991 80.901 63.0991 79.6662C63.0991 78.4553 62.177 77.5417 60.8582 77.453C60.6495 77.4388 60.4392 77.4461 60.2297 77.4461C52.0566 77.4461 43.8836 77.4436 35.7105 77.4516C35.2668 77.4522 34.806 77.4781 34.3828 77.5968C33.4708 77.8527 32.894 78.6489 32.8596 79.582C32.8248 80.5236 33.329 81.3649 34.2167 81.6847C34.6256 81.8321 35.0918 81.8747 35.5324 81.8761C39.6637 81.8897 43.7953 81.8842 47.9267 81.8842H47.9264ZM47.9247 74.6297C51.9964 74.6297 56.0681 74.6302 60.1397 74.6285C60.4689 74.6285 60.8 74.6324 61.1263 74.5985C62.2778 74.4784 63.0994 73.5765 63.1072 72.4443C63.1153 71.3104 62.3013 70.3907 61.1579 70.2631C60.8319 70.2266 60.5005 70.2297 60.1717 70.2297C52.0883 70.228 44.0046 70.2275 35.9212 70.2308C35.503 70.2308 35.0794 70.233 34.6674 70.2937C33.6814 70.4388 33.001 71.1761 32.9052 72.1525C32.7568 73.6657 33.6674 74.6163 35.3503 74.6233C39.5416 74.6402 43.7331 74.6288 47.9247 74.6297ZM39.4248 84.7331C39.3951 86.5767 40.6066 88.0854 42.271 88.1141C46.0715 88.1792 49.8745 88.1806 53.6751 88.1144C55.391 88.0846 56.6798 86.4032 56.4218 84.7331H39.4248Z" fill="white"/>
<path d="M78.6096 11.8366C78.299 12.345 78.1362 12.7699 77.8424 13.067C75.7869 15.1447 73.7099 17.2013 71.6276 19.2527C70.9032 19.966 70.1091 20.0111 69.4929 19.4223C68.8587 18.8166 68.8649 18.0256 69.5794 17.3078C71.6836 15.1942 73.8063 13.0987 75.9262 11.0006C76.3881 10.5434 76.9662 10.2939 77.5427 10.6688C77.9502 10.9339 78.2242 11.4014 78.6096 11.8369V11.8366Z" fill="white"/>
<path d="M68.8398 56.2112C69.2163 55.7696 69.4802 55.2824 69.8905 55.0223C70.4508 54.6672 71.0429 54.8641 71.5163 55.3341C72.6171 56.4271 73.7191 57.5186 74.8199 58.6119C75.8359 59.6209 76.8602 60.6218 77.863 61.6438C78.5608 62.3553 78.5899 63.1718 77.979 63.7642C77.3406 64.3832 76.5969 64.3496 75.849 63.6131C73.7656 61.5621 71.6891 59.5041 69.632 57.4271C69.3354 57.1276 69.1592 56.7102 68.8401 56.2112H68.8398Z" fill="white"/>
<path d="M82.9732 38.7543C81.5074 38.7543 80.0415 38.7679 78.576 38.7496C77.5488 38.7368 76.9592 38.2125 76.9522 37.3654C76.9452 36.5205 77.5407 35.971 78.5581 35.966C81.5194 35.951 84.4807 35.9493 87.442 35.9671C88.4908 35.9735 89.0188 36.4913 88.9995 37.3913C88.9812 38.2465 88.4605 38.7321 87.46 38.7468C85.9647 38.769 84.469 38.7526 82.9732 38.7543Z" fill="white"/>
<path d="M69.238 36.532C69.238 36.4241 69.2369 36.4836 69.238 36.5428C69.2671 37.8675 68.8259 38.5152 67.88 38.536C66.9638 38.5563 66.4775 37.9604 66.3996 36.7005C65.9974 30.185 62.7316 25.6991 56.6832 23.1938C55.9868 22.9054 55.3972 22.4755 55.5779 21.6951C55.686 21.2284 56.1283 20.7607 56.5459 20.4723C56.7843 20.3076 57.3011 20.4269 57.647 20.5471C64.247 22.8423 69.0251 29.3784 69.2377 36.532H69.238Z" fill="white"/>
</g>
<defs>
<clipPath id="clip0_277_39">
<rect width="73" height="91" fill="white" transform="translate(16)"/>
</clipPath>
</defs>
</svg>
