<svg width="20" height="20" viewBox="0 0 20 20" fill="none" xmlns="http://www.w3.org/2000/svg">
<path d="M6.06236 3.00049C6.30397 3.00049 6.49984 3.19635 6.49984 3.43797V3.87545H13.4995V3.43797C13.4995 3.19635 13.6954 3.00049 13.937 3.00049C14.1786 3.00049 14.3745 3.19635 14.3745 3.43797V3.87545H15.2494C16.2159 3.87545 16.9993 4.65891 16.9993 5.62537V15.2499C16.9993 16.2164 16.2159 16.9998 15.2494 16.9998H4.74992C3.78347 16.9998 3 16.2164 3 15.2499V5.62537C3 4.65891 3.78347 3.87545 4.74992 3.87545H5.62488V3.43797C5.62488 3.19635 5.82074 3.00049 6.06236 3.00049ZM4.74992 4.75041C4.26669 4.75041 3.87496 5.14214 3.87496 5.62537V6.50033H16.1244V5.62537C16.1244 5.14214 15.7327 4.75041 15.2494 4.75041H4.74992ZM16.1244 7.37529H3.87496V15.2499C3.87496 15.7331 4.26669 16.1249 4.74992 16.1249H15.2494C15.7327 16.1249 16.1244 15.7331 16.1244 15.2499V7.37529Z" fill="black"/>
<path d="M12.625 9.56248C12.625 9.32087 12.8209 9.125 13.0625 9.125H13.9374C14.1791 9.125 14.3749 9.32087 14.3749 9.56248V10.4374C14.3749 10.6791 14.1791 10.8749 13.9374 10.8749H13.0625C12.8209 10.8749 12.625 10.6791 12.625 10.4374V9.56248Z" fill="black"/>
</svg>
