<svg width="18" height="18" viewBox="0 0 18 18" fill="none" xmlns="http://www.w3.org/2000/svg">
<g clip-path="url(#clip0_267_188)">
<path d="M9.62635 0C10.072 0.0709615 10.5181 0.141058 10.9638 0.214183C11.0555 0.229327 11.1468 0.251827 11.2364 0.276923C11.6301 0.386827 11.8573 0.74726 11.7651 1.11202C11.6674 1.49755 11.3048 1.71087 10.8967 1.61351C10.2434 1.45731 9.58265 1.3751 8.91024 1.38245C5.2488 1.42226 2.12649 4.11837 1.54755 7.73481C0.83101 12.211 3.90269 15.8067 7.84928 16.4787C11.8534 17.1606 15.8009 14.3511 16.4923 10.3522C16.6788 9.27303 16.6498 8.20601 16.3963 7.14245C16.2881 6.68899 16.501 6.31644 16.9099 6.22817C17.2911 6.14596 17.6493 6.3926 17.735 6.82745C17.8263 7.29216 17.8886 7.76207 17.9643 8.22981C17.9743 8.29255 17.9886 8.35442 18.0007 8.41673V9.53913C17.9877 9.60923 17.9734 9.67889 17.9617 9.74899C17.8791 10.2371 17.8332 10.7347 17.7086 11.2119C16.5027 15.8361 12.0135 18.6707 7.31404 17.7875C2.46832 16.8776 -0.775144 12.1089 0.239953 7.26793C1.03178 3.49096 3.38822 1.15572 7.12365 0.216346C7.55981 0.106442 8.01457 0.0705288 8.46067 0C8.84923 0 9.23779 0 9.62635 0Z" fill="white"/>
<path d="M18.0005 2.33082C17.8647 2.50347 17.7444 2.69169 17.5908 2.84616C14.9098 5.53577 12.2245 8.2215 9.53968 10.9076C9.23463 11.2131 8.82184 11.2235 8.52415 10.9258C7.55708 9.96005 6.59305 8.99169 5.62814 8.02376C5.42997 7.82472 5.35079 7.5902 5.4343 7.31457C5.51175 7.05842 5.68656 6.89876 5.94487 6.83991C6.21487 6.7789 6.43468 6.87669 6.62636 7.0688C7.36713 7.81347 8.11136 8.55424 8.85257 9.29803C8.90276 9.34866 8.93954 9.4127 8.98237 9.47025L9.07713 9.50486C9.12083 9.43044 9.15112 9.34217 9.2104 9.28289C11.7205 6.76808 14.2331 4.25544 16.7462 1.74323C17.1936 1.29582 17.7085 1.38582 17.972 1.95438C17.9776 1.9665 17.991 1.97472 18.001 1.98467V2.32996L18.0005 2.33082Z" fill="white"/>
</g>
<defs>
<clipPath id="clip0_267_188">
<rect width="18" height="18" fill="white"/>
</clipPath>
</defs>
</svg>
