<svg width="32" height="32" viewBox="0 0 32 32" fill="none" xmlns="http://www.w3.org/2000/svg">
<path d="M5.5 16.6163C5.5 16.2062 5.5 15.7961 5.5 15.3859C5.51719 15.2378 5.5354 15.0901 5.55158 14.942C5.79785 12.72 6.63728 10.7544 8.11993 9.07858C9.7457 7.24144 11.7704 6.09709 14.1896 5.66675C14.5846 5.59646 14.9846 5.55702 15.3825 5.50342C15.7926 5.50342 16.2027 5.50342 16.6129 5.50342C16.6791 5.51606 16.7453 5.53072 16.8121 5.54033C17.2712 5.60658 17.7365 5.644 18.188 5.7421C20.718 6.29178 22.7872 7.59492 24.3442 9.65759C26.2572 12.1911 26.8964 15.0476 26.2633 18.1546C25.7439 20.7042 24.4089 22.777 22.3397 24.3517C20.1516 26.0174 17.6642 26.7081 14.932 26.4412C12.7055 26.2237 10.7409 25.356 9.06505 23.8703C7.23398 22.246 6.09316 20.2238 5.66334 17.8097C5.59305 17.4147 5.5536 17.0142 5.5 16.6163ZM24.9864 15.9912C24.9733 11.0255 20.9561 7.01288 15.9979 7.01237C11.0337 7.01237 6.9953 11.0543 7.00845 16.011C7.02159 20.9828 11.066 25.0141 16.0177 24.9904C20.987 24.9666 24.9996 20.9403 24.9864 15.9912Z" fill="black"/>
<path d="M16.4593 15.8291C16.568 15.8291 16.6484 15.8291 16.7288 15.8291C18.259 15.8291 19.7892 15.8281 21.3199 15.8301C21.7407 15.8301 22.0122 16.0208 22.1138 16.3732C22.2438 16.8253 21.9389 17.2744 21.4701 17.3189C21.4024 17.3254 21.3336 17.327 21.2653 17.327C19.455 17.327 17.6446 17.3259 15.8343 17.329C15.5547 17.329 15.2866 17.287 15.1309 17.0377C15.0384 16.89 14.9686 16.6989 14.9676 16.5265C14.9564 14.5113 14.958 12.4957 14.962 10.4805C14.963 10.0057 15.278 9.68257 15.7129 9.68409C16.1473 9.6856 16.4563 10.0103 16.4573 10.4871C16.4608 12.1811 16.4588 13.8757 16.4588 15.5697C16.4588 15.644 16.4588 15.7184 16.4588 15.8286L16.4593 15.8291Z" fill="black"/>
</svg>
