<svg width="33" height="34" viewBox="0 0 33 34" fill="none" xmlns="http://www.w3.org/2000/svg">
<g clip-path="url(#clip0_264_11)">
<path d="M0 11.6736C0 11.6615 0 11.6495 0 11.6383C0.0120955 11.6314 0.0293748 11.628 0.0354226 11.6177C0.098492 11.505 0.147738 11.382 0.223767 11.2787C0.556393 10.8263 0.896796 10.3789 1.23288 9.92906C2.86923 7.74325 4.50644 5.55658 6.14106 3.3682C6.29485 3.16175 6.4927 3.0697 6.74584 3.0697C13.2178 3.0697 19.6906 3.07056 26.1626 3.0697C26.4235 3.0697 26.6239 3.16002 26.7812 3.37508C27.1328 3.85766 27.4965 4.33164 27.8551 4.80992C29.0379 6.38583 30.2206 7.96175 31.4034 9.53766C31.8604 10.1458 32.3192 10.7531 32.7719 11.3639C32.8324 11.4456 32.8868 11.542 32.9093 11.6392C32.9508 11.8181 32.879 11.9764 32.7641 12.1157C32.5533 12.3695 32.3451 12.6258 32.1317 12.8779C31.3818 13.7622 30.6293 14.6448 29.8776 15.5282C29.0897 16.4546 28.3035 17.382 27.5147 18.3076C26.9229 19.0017 26.3276 19.6934 25.7349 20.3876C25.4593 20.711 25.1889 21.0396 24.9142 21.3639C24.0061 22.434 23.0972 23.5033 22.1883 24.5725C21.5585 25.3131 20.9304 26.0555 20.3006 26.7962C19.7468 27.4456 19.1895 28.0916 18.6366 28.7411C18.0888 29.3837 17.5437 30.028 16.9976 30.6723C16.8836 30.8073 16.7687 30.9398 16.5829 30.9785C16.5726 30.9802 16.5648 30.994 16.5562 31.0017H16.341C16.3315 30.9888 16.3255 30.9665 16.3134 30.9639C16.1812 30.9321 16.0888 30.846 16.0041 30.748C15.8373 30.5544 15.6689 30.3617 15.5038 30.1665C15.0425 29.622 14.5846 29.0749 14.1224 28.5312C13.623 27.9445 13.1184 27.363 12.6199 26.7764C12.0851 26.1467 11.5555 25.5119 11.0207 24.8813C10.4289 24.1828 9.83365 23.4869 9.2401 22.7893C9.11224 22.6387 8.98437 22.4873 8.85305 22.3316C8.83318 22.3531 8.81849 22.3635 8.81071 22.3781C8.51783 22.9054 8.32517 23.4663 8.25346 24.0641C8.22495 24.3024 8.22322 24.5433 8.20421 24.7824C8.18693 24.9949 8.0677 25.1411 7.8759 25.2237C7.68065 25.3071 7.49749 25.2719 7.32988 25.1454C7.16832 25.0241 7.12166 24.8538 7.10698 24.662C7.08365 24.3463 7.07242 24.0263 7.01194 23.7166C6.84606 22.8641 6.47369 22.1114 5.84559 21.4972C5.37818 21.0405 4.82784 20.7385 4.17295 20.6448C4.01398 20.6215 3.85156 20.625 3.69259 20.6C3.39797 20.5544 3.1984 20.2757 3.24073 19.985C3.2727 19.7673 3.43426 19.5944 3.66753 19.5506C3.8049 19.5248 3.94573 19.5222 4.08483 19.5058C4.69565 19.4353 5.22958 19.197 5.68489 18.7841C5.74882 18.7256 5.7566 18.6981 5.69958 18.631C4.71725 17.48 3.73578 16.3273 2.75605 15.1738C1.95602 14.231 1.15858 13.2848 0.358545 12.3411C0.189208 12.1424 0.00604775 11.9557 0 11.6736ZM17.5877 28.262C17.5938 28.2628 17.5998 28.2637 17.6067 28.2645C22.1348 22.9467 26.6637 17.6288 31.203 12.2981C31.1511 12.2946 31.114 12.2912 31.0768 12.2912C30.2863 12.2921 29.4958 12.2946 28.7052 12.2946C26.4028 12.2946 24.1003 12.2929 21.7978 12.2878C21.6907 12.2878 21.6596 12.3213 21.6354 12.4168C21.3131 13.6891 20.9874 14.9605 20.6617 16.2327C20.05 18.6267 19.4383 21.0215 18.8258 23.4155C18.4465 24.8994 18.0655 26.3833 17.6854 27.868C17.6517 27.9987 17.6206 28.1303 17.5886 28.262H17.5877ZM16.4525 28.2138C16.4585 28.2138 16.4646 28.2138 16.4706 28.2129C17.8279 22.9097 19.1852 17.6065 20.5451 12.2964H12.3806C13.7396 17.6091 15.0961 22.9114 16.4525 28.2138ZM1.73657 12.2929C3.32281 14.1544 4.8935 15.9962 6.46505 17.8405C6.47542 17.8284 6.48492 17.8207 6.4901 17.8103C6.7588 17.3398 6.95405 16.8409 7.03095 16.3041C7.07587 15.991 7.0871 15.6727 7.11993 15.357C7.14758 15.0843 7.37221 14.8813 7.64091 14.8753C7.92601 14.8693 8.16188 15.0577 8.19816 15.3355C8.2189 15.4938 8.22235 15.6546 8.23099 15.8146C8.28456 16.7385 8.58867 17.5712 9.16321 18.2981C9.58137 18.8271 10.1032 19.228 10.7641 19.4086C11.0199 19.4783 11.2912 19.4964 11.5573 19.5265C11.9279 19.5678 12.1603 19.8602 12.08 20.1957C12.0195 20.4495 11.8087 20.6086 11.5184 20.6155C10.924 20.6301 10.3823 20.8082 9.89672 21.148C9.76885 21.2374 9.65222 21.3441 9.5278 21.4448C11.4665 23.7269 13.3958 25.9962 15.325 28.2663C15.3336 28.231 15.3293 28.2026 15.3224 28.1742C15.1211 27.388 14.9189 26.6017 14.7176 25.8155C14.3772 24.4839 14.0377 23.1514 13.6973 21.8198C13.3794 20.5768 13.0597 19.3346 12.7426 18.0916C12.2631 16.2146 11.7845 14.3368 11.305 12.4598C11.2618 12.2895 11.2601 12.2895 11.0855 12.2946C11.0613 12.2946 11.038 12.2955 11.0138 12.2955C7.96921 12.2955 4.92374 12.2946 1.87912 12.2938C1.83593 12.2938 1.79273 12.2938 1.73657 12.2938V12.2929ZM6.5886 4.58196C4.93756 6.79185 3.29948 8.98454 1.65449 11.1867H10.6933C9.32477 8.98454 7.9623 6.79185 6.5886 4.58196ZM22.2462 11.1876H31.2816C29.6375 8.97766 28.0037 6.78239 26.3665 4.58196C24.9902 6.78841 23.6217 8.98196 22.2454 11.1876H22.2462ZM17.4219 4.17164C18.7048 6.35142 19.9783 8.51572 21.2622 10.6972C22.6177 8.51486 23.9621 6.35228 25.3168 4.17164H17.4219ZM7.62967 4.17938C8.97746 6.35916 10.3149 8.52002 11.6627 10.6989C12.9491 8.51486 14.2235 6.35228 15.5047 4.17938H7.62967ZM20.2876 11.191C19.0133 9.02583 17.745 6.87271 16.4654 4.69981C15.1868 6.87185 13.9185 9.02669 12.6441 11.191H20.2876ZM5.74364 20.0701C6.60933 20.6112 7.23743 21.326 7.66942 22.2379C8.10399 21.3321 8.71654 20.6069 9.59001 20.0839C9.16321 19.8138 8.79171 19.5101 8.46945 19.1488C8.14546 18.7858 7.88973 18.3798 7.66942 17.9256C7.21411 18.8185 6.6076 19.5506 5.74364 20.0693V20.0701Z" fill="#B9B9B9"/>
<path d="M24.2687 24.7222C24.2687 24.4082 24.5011 24.1846 24.8415 24.182C25.1699 24.1794 25.4757 24.0968 25.7444 23.9145C26.1928 23.6117 26.5185 23.2091 26.7043 22.6964C26.8287 22.3523 26.89 21.9996 26.903 21.6349C26.9064 21.5282 26.9263 21.4138 26.9712 21.3175C27.074 21.0999 27.3315 20.9898 27.5648 21.0439C27.8032 21.099 27.9855 21.3098 27.9907 21.5532C28.0011 22.0177 28.0788 22.4676 28.281 22.89C28.5393 23.431 28.9169 23.8543 29.4905 24.0771C29.6754 24.1485 29.8681 24.1777 30.0677 24.1812C30.3605 24.1872 30.567 24.3558 30.6249 24.6267C30.6906 24.9321 30.4608 25.2341 30.148 25.2685C29.945 25.2908 29.7324 25.2986 29.5432 25.3665C28.8832 25.6048 28.4598 26.0857 28.2067 26.7274C28.0598 27.0999 28.0037 27.4878 27.9933 27.8844C27.989 28.0607 27.9164 28.2052 27.7782 28.3162C27.6175 28.4452 27.4395 28.4693 27.2503 28.3902C27.0671 28.3136 26.9427 28.1829 26.9185 27.9824C26.8935 27.7829 26.8961 27.579 26.865 27.3803C26.7457 26.619 26.3941 25.9928 25.7496 25.5489C25.5103 25.3846 25.2381 25.2977 24.9461 25.2805C24.8865 25.2771 24.8269 25.2719 24.7672 25.2685C24.4562 25.2538 24.2428 24.9665 24.2696 24.7231L24.2687 24.7222ZM28.4538 24.7007C28.0425 24.3919 27.7211 24.0272 27.4628 23.5833C27.2002 24.0203 26.8874 24.3885 26.4718 24.693C26.8762 25.0018 27.2028 25.3648 27.4602 25.8087C27.7289 25.3691 28.0278 24.9932 28.4529 24.7007H28.4538Z" fill="#B9B9B9"/>
<path d="M25.671 16.7799C25.6754 16.9166 25.6149 17.0293 25.5311 17.1282C25.2045 17.5145 24.8779 17.8999 24.547 18.2818C23.7867 19.1618 23.0247 20.0392 22.2627 20.9184C22.1011 21.105 21.9456 21.2968 21.7728 21.4732C21.5223 21.7287 21.105 21.6796 20.914 21.3837C20.7862 21.185 20.8 20.9476 20.9624 20.7472C21.1309 20.5399 21.3063 20.3368 21.4808 20.1347C21.8929 19.6573 22.3059 19.1816 22.7197 18.7059C23.258 18.0865 23.798 17.468 24.3371 16.8495C24.4719 16.6947 24.6014 16.5356 24.7457 16.3902C24.8978 16.2371 25.0904 16.1915 25.2978 16.2594C25.4861 16.3214 25.608 16.4538 25.6529 16.6491C25.6633 16.6921 25.6641 16.7368 25.6693 16.7807L25.671 16.7799Z" fill="#B9B9B9"/>
<path d="M26.4986 14.6809C26.7863 14.6783 27.0549 14.9235 27.0601 15.1936C27.0662 15.4895 26.8148 15.7442 26.5132 15.7485C26.2255 15.7528 25.9759 15.5016 25.9741 15.2074C25.9724 14.9123 26.1996 14.6844 26.4986 14.6818V14.6809Z" fill="#B9B9B9"/>
<path d="M0 11.6736C0 11.6615 0 11.6495 0 11.6383C0.0120955 11.6314 0.0293748 11.628 0.0354226 11.6177C0.098492 11.505 0.147738 11.382 0.223767 11.2787C0.556393 10.8263 0.896796 10.379 1.23288 9.92906C2.86923 7.74325 4.50644 5.55658 6.14106 3.3682C6.29485 3.16175 6.4927 3.0697 6.74584 3.0697C13.2178 3.0697 19.6906 3.07056 26.1626 3.0697C26.4235 3.0697 26.6239 3.16002 26.7812 3.37508C27.1328 3.85766 27.4965 4.33164 27.8551 4.80992C29.0379 6.38583 30.2206 7.96175 31.4034 9.53766C31.8604 10.1458 32.3192 10.7531 32.7719 11.3639C32.8324 11.4456 32.8868 11.542 32.9093 11.6392C32.9508 11.8181 32.879 11.9764 32.7641 12.1157C32.5533 12.3695 32.3451 12.6258 32.1317 12.8779C31.3818 13.7622 30.6293 14.6448 29.8776 15.5282C29.0897 16.4546 28.3035 17.382 27.5147 18.3076C26.9229 19.0017 26.3276 19.6934 25.7349 20.3876C25.4593 20.711 25.1889 21.0396 24.9142 21.3639C24.0061 22.434 23.0972 23.5033 22.1883 24.5725C21.5585 25.3131 20.9304 26.0555 20.3006 26.7962C19.7468 27.4456 19.1895 28.0916 18.6366 28.7411C18.0888 29.3837 17.5437 30.028 16.9976 30.6723C16.8836 30.8073 16.7687 30.9398 16.5829 30.9785C16.5726 30.9802 16.5648 30.994 16.5562 31.0017H16.341C16.3315 30.9888 16.3255 30.9665 16.3134 30.9639C16.1812 30.9321 16.0888 30.846 16.0041 30.748C15.8373 30.5544 15.6689 30.3617 15.5038 30.1665C15.0425 29.622 14.5846 29.0749 14.1224 28.5312C13.623 27.9445 13.1184 27.363 12.6199 26.7764C12.0851 26.1467 11.5555 25.5119 11.0207 24.8813C10.4289 24.1828 9.83365 23.4869 9.2401 22.7893C9.11224 22.6387 8.98437 22.4873 8.85305 22.3316C8.83318 22.3531 8.81849 22.3635 8.81071 22.3781C8.51783 22.9054 8.32517 23.4663 8.25346 24.0641C8.22495 24.3024 8.22322 24.5433 8.20421 24.7824C8.18693 24.9949 8.0677 25.1411 7.8759 25.2237C7.68065 25.3071 7.49749 25.2719 7.32988 25.1454C7.16832 25.0241 7.12166 24.8538 7.10698 24.662C7.08365 24.3463 7.07242 24.0263 7.01194 23.7166C6.84606 22.8641 6.47369 22.1114 5.84559 21.4972C5.37818 21.0405 4.82784 20.7385 4.17295 20.6448C4.01398 20.6215 3.85156 20.625 3.69259 20.6C3.39797 20.5544 3.1984 20.2757 3.24073 19.985C3.2727 19.7673 3.43426 19.5944 3.66753 19.5506C3.8049 19.5248 3.94573 19.5222 4.08483 19.5058C4.69565 19.4353 5.22958 19.197 5.68489 18.7841C5.74882 18.7256 5.7566 18.6981 5.69958 18.631C4.71725 17.48 3.73578 16.3273 2.75605 15.1738C1.95602 14.231 1.15858 13.2848 0.358545 12.3411C0.189208 12.1424 0.00604775 11.9557 0 11.6736ZM17.5877 28.262C17.5938 28.2628 17.5998 28.2637 17.6067 28.2645C22.1348 22.9467 26.6637 17.6288 31.203 12.2981C31.1511 12.2946 31.114 12.2912 31.0768 12.2912C30.2863 12.2921 29.4958 12.2946 28.7052 12.2946C26.4028 12.2946 24.1003 12.2929 21.7978 12.2878C21.6907 12.2878 21.6596 12.3213 21.6354 12.4168C21.3131 13.6891 20.9874 14.9605 20.6617 16.2327C20.05 18.6267 19.4383 21.0215 18.8258 23.4155C18.4465 24.8994 18.0655 26.3832 17.6854 27.868C17.6517 27.9987 17.6197 28.1303 17.5877 28.262ZM16.4525 28.2138C16.4585 28.2138 16.4646 28.2138 16.4706 28.2129C17.8279 22.9097 19.1852 17.6065 20.5451 12.2964H12.3806C13.7396 17.6091 15.0961 22.9114 16.4525 28.2138ZM1.73657 12.2929C3.32281 14.1544 4.8935 15.9962 6.46505 17.8405C6.47542 17.8284 6.48492 17.8207 6.4901 17.8103C6.7588 17.3398 6.95405 16.8409 7.03095 16.3041C7.07587 15.991 7.0871 15.6727 7.11993 15.357C7.14758 15.0843 7.37221 14.8813 7.64091 14.8753C7.92601 14.8693 8.16188 15.0577 8.19816 15.3355C8.2189 15.4938 8.22235 15.6546 8.23099 15.8146C8.28456 16.7385 8.58867 17.5712 9.16321 18.2981C9.58137 18.8271 10.1032 19.228 10.7641 19.4086C11.0199 19.4783 11.2912 19.4964 11.5573 19.5265C11.9279 19.5678 12.1603 19.8602 12.08 20.1957C12.0195 20.4495 11.8087 20.6086 11.5184 20.6155C10.924 20.6301 10.3823 20.8082 9.89672 21.148C9.76885 21.2374 9.65222 21.3441 9.5278 21.4448C11.4665 23.7269 13.3958 25.9962 15.325 28.2663C15.3336 28.231 15.3293 28.2026 15.3224 28.1742C15.1211 27.388 14.9189 26.6017 14.7176 25.8155C14.3772 24.4839 14.0377 23.1514 13.6973 21.8198C13.3794 20.5768 13.0597 19.3346 12.7426 18.0916C12.2631 16.2146 11.7845 14.3368 11.305 12.4598C11.2618 12.2895 11.2601 12.2895 11.0855 12.2946C11.0613 12.2946 11.038 12.2955 11.0138 12.2955C7.96921 12.2955 4.92374 12.2946 1.87912 12.2938C1.83593 12.2938 1.79273 12.2929 1.73657 12.2929ZM6.5886 4.58196C4.93756 6.79185 3.29948 8.98454 1.65449 11.1867H10.6933C9.32477 8.98454 7.9623 6.79185 6.5886 4.58196ZM22.2462 11.1876H31.2816C29.6375 8.97766 28.0037 6.78239 26.3665 4.58196C24.9902 6.78841 23.6225 8.98196 22.2462 11.1876ZM17.4219 4.17164C18.7048 6.35142 19.9783 8.51572 21.2622 10.6972C22.6177 8.51486 23.9621 6.35228 25.3168 4.17164H17.4219ZM7.62967 4.17938C8.97746 6.35916 10.3149 8.52003 11.6627 10.6989C12.9491 8.51486 14.2235 6.35228 15.5047 4.17938H7.62967ZM20.2876 11.191C19.0133 9.02583 17.745 6.87271 16.4654 4.69981C15.1868 6.87185 13.9185 9.02669 12.6441 11.191H20.2876ZM5.74364 20.0701C6.60933 20.6112 7.23743 21.326 7.66942 22.2379C8.10399 21.3321 8.71654 20.6069 9.59001 20.0839C9.16321 19.8138 8.79171 19.5101 8.46945 19.1488C8.14546 18.7858 7.88973 18.3798 7.66942 17.9256C7.21411 18.8185 6.6076 19.5514 5.74364 20.0701Z" fill="#EABD50"/>
<path d="M24.2687 24.7222C24.2687 24.4082 24.5011 24.1846 24.8415 24.182C25.1699 24.1794 25.4757 24.0968 25.7444 23.9145C26.1928 23.6117 26.5185 23.2091 26.7043 22.6964C26.8287 22.3523 26.89 21.9996 26.903 21.6349C26.9064 21.5282 26.9263 21.4138 26.9712 21.3175C27.074 21.0999 27.3315 20.9898 27.5648 21.0439C27.8032 21.099 27.9855 21.3098 27.9907 21.5532C28.0011 22.0177 28.0788 22.4676 28.281 22.89C28.5393 23.431 28.9169 23.8543 29.4905 24.0771C29.6754 24.1485 29.8681 24.1777 30.0677 24.1812C30.3605 24.1872 30.567 24.3558 30.6249 24.6267C30.6906 24.9321 30.4608 25.2341 30.148 25.2685C29.945 25.2908 29.7324 25.2986 29.5432 25.3665C28.8832 25.6048 28.4598 26.0857 28.2067 26.7274C28.0598 27.0999 28.0037 27.4878 27.9933 27.8844C27.989 28.0607 27.9164 28.2052 27.7782 28.3162C27.6175 28.4452 27.4395 28.4693 27.2503 28.3902C27.0671 28.3136 26.9427 28.1829 26.9185 27.9824C26.8935 27.7829 26.8961 27.579 26.865 27.3803C26.7457 26.619 26.3941 25.9928 25.7496 25.5489C25.5103 25.3846 25.2381 25.2977 24.9461 25.2805C24.8865 25.2771 24.8269 25.2719 24.7672 25.2685C24.4562 25.2538 24.2428 24.9665 24.2696 24.7231L24.2687 24.7222ZM28.4538 24.7007C28.0425 24.3919 27.7211 24.0272 27.4628 23.5833C27.2002 24.0203 26.8874 24.3885 26.4718 24.693C26.8762 25.0018 27.2028 25.3648 27.4602 25.8087C27.7289 25.3691 28.0278 24.9932 28.4529 24.7007H28.4538Z" fill="#EABD50"/>
<path d="M25.671 16.7799C25.6754 16.9166 25.6149 17.0293 25.5311 17.1282C25.2045 17.5145 24.8779 17.8999 24.547 18.2818C23.7867 19.1618 23.0247 20.0392 22.2627 20.9184C22.1011 21.105 21.9456 21.2968 21.7728 21.4732C21.5223 21.7287 21.105 21.6796 20.914 21.3837C20.7862 21.185 20.8 20.9476 20.9624 20.7472C21.1309 20.5399 21.3063 20.3368 21.4808 20.1347C21.8929 19.6573 22.3059 19.1816 22.7197 18.7059C23.258 18.0865 23.798 17.468 24.3371 16.8495C24.4719 16.6947 24.6014 16.5356 24.7457 16.3902C24.8978 16.2371 25.0904 16.1915 25.2978 16.2594C25.4861 16.3214 25.608 16.4538 25.6529 16.6491C25.6633 16.6921 25.6641 16.7368 25.6693 16.7807L25.671 16.7799Z" fill="#EABD50"/>
<path d="M26.4986 14.6809C26.7863 14.6783 27.0549 14.9235 27.0601 15.1936C27.0662 15.4895 26.8148 15.7442 26.5132 15.7485C26.2255 15.7528 25.9759 15.5016 25.9741 15.2074C25.9724 14.9123 26.1996 14.6844 26.4986 14.6818V14.6809Z" fill="#EABD50"/>
</g>
<defs>
<clipPath id="clip0_264_11">
<rect width="33" height="28" fill="white" transform="translate(0 3)"/>
</clipPath>
</defs>
</svg>
