<svg width="88" height="91" viewBox="0 0 88 91" fill="none" xmlns="http://www.w3.org/2000/svg">
<g clip-path="url(#clip0_277_52)">
<path d="M44.5562 0C45.4656 0.38712 45.9622 1.08723 46.2948 2.00493C47.1689 4.41619 48.1316 6.79519 49.0168 9.20303C49.2284 9.77821 49.5306 10.002 50.144 10.026C52.8515 10.1324 55.5575 10.2758 58.2636 10.4193C59.5174 10.4859 60.1999 10.9622 60.5243 11.9472C60.8334 12.8848 60.5284 13.7256 59.5616 14.5012C57.4545 16.1918 55.3487 17.8844 53.2187 19.5461C52.7629 19.9017 52.6557 20.2112 52.8196 20.7803C53.5638 23.3617 54.2491 25.959 54.949 28.5529C55.2685 29.7376 55.0236 30.6038 54.227 31.1838C53.4289 31.7651 52.4912 31.748 51.4794 31.0952C49.1827 29.614 46.8868 28.1321 44.6102 26.6207C44.1565 26.3194 43.8391 26.3331 43.3896 26.6317C41.1655 28.1108 38.9173 29.5536 36.6759 31.0074C35.5494 31.7377 34.5923 31.8029 33.7728 31.1742C32.8364 30.4555 32.7652 29.522 33.0674 28.454C33.799 25.8691 34.4705 23.267 35.2084 20.6842C35.3516 20.1838 35.2499 19.9106 34.8557 19.6004C32.7313 17.9318 30.6269 16.2378 28.5162 14.5513C27.4858 13.7277 27.1608 12.9074 27.4789 11.9451C27.8109 10.9396 28.4858 10.4866 29.8337 10.4145C32.5086 10.2724 35.1842 10.1303 37.8606 10.026C38.4747 10.002 38.7762 9.77684 38.9871 9.20234C39.873 6.79519 40.8363 4.41619 41.7098 2.00424C42.0424 1.08586 42.5369 0.385747 43.4477 0.000686383H44.5569L44.5562 0ZM36.3516 27.6709C36.8018 27.3977 37.0646 27.2474 37.3184 27.0826C39.0189 25.9817 40.7409 24.9109 42.4089 23.7633C43.5272 22.9938 44.5417 23.0206 45.6351 23.7852C46.7664 24.5759 47.9442 25.3015 49.1032 26.053C49.8861 26.5603 50.6724 27.0627 51.6537 27.6928C50.9656 25.1649 50.3653 22.8696 49.7097 20.5901C49.3778 19.4363 49.7063 18.5715 50.6295 17.8501C51.96 16.8116 53.274 15.7518 54.5914 14.6968C55.1246 14.2692 55.6481 13.8299 56.3494 13.2541C53.7422 13.1195 51.3874 12.9678 49.0299 12.8875C47.7872 12.8457 47.0306 12.2801 46.6095 11.1455C45.8778 9.17077 45.115 7.20634 44.3591 5.24054C44.2706 5.0106 44.1434 4.79576 43.958 4.42031C43.0479 6.8048 42.2042 8.99711 41.3757 11.1949C40.9636 12.2876 40.2174 12.8614 39.0127 12.8834C37.7824 12.9054 36.5528 12.9939 35.3232 13.0612C34.1732 13.1243 33.0245 13.1978 31.6469 13.2801C33.5715 14.8163 35.2824 16.2494 37.0687 17.5845C38.2921 18.4987 38.6635 19.5303 38.1987 21.004C37.5307 23.1229 37.0051 25.2857 36.3523 27.6722L36.3516 27.6709Z" fill="white"/>
<path d="M87.9998 51.7375C87.5545 52.2303 87.1568 52.7781 86.6547 53.2043C85.486 54.1975 84.3028 55.1825 83.0531 56.0707C82.3256 56.5882 82.2066 57.092 82.4667 57.9074C82.9763 59.506 83.3816 61.1375 83.8173 62.7588C84.1036 63.8227 83.8754 64.599 83.1188 65.1268C82.2758 65.715 81.448 65.5853 80.6285 65.0465C79.0891 64.0348 77.531 63.0505 76.0048 62.0202C75.5836 61.7354 75.2848 61.7306 74.8602 62.0168C73.3589 63.0292 71.8312 64.0032 70.3084 64.984C69.2994 65.634 68.4993 65.6745 67.7441 65.1357C66.973 64.5859 66.7566 63.8247 67.0622 62.6819C67.52 60.9714 67.9474 59.252 68.4682 57.5608C68.6583 56.9424 68.5 56.6204 68.0249 56.2567C66.6362 55.1928 65.278 54.0884 63.9122 52.9957C62.9717 52.2434 62.675 51.4952 62.9551 50.6256C63.2566 49.6907 63.9495 49.2391 65.1743 49.1842C66.8969 49.108 68.6189 49.0002 70.3423 48.9748C71.0414 48.9645 71.3596 48.7092 71.585 48.0592C72.1556 46.416 72.8063 44.7996 73.4356 43.1769C73.8658 42.0684 74.482 41.6044 75.4612 41.6189C76.5075 41.634 77.0725 42.2517 77.4148 43.1529C78.0538 44.8373 78.7164 46.5135 79.3242 48.2088C79.5206 48.7566 79.8208 48.9522 80.3962 48.9659C82.058 49.0057 83.7184 49.1478 85.3795 49.1588C86.5697 49.1663 87.4632 49.5528 87.9984 50.6359C87.9984 51.0031 87.9984 51.3696 87.9984 51.7368L87.9998 51.7375ZM67.7503 52.0155C67.7247 52.0828 67.6998 52.1507 67.6743 52.218C68.3153 52.7328 68.9052 53.3327 69.6072 53.7459C71.632 54.9368 72.2005 56.5072 71.2289 58.6755C70.8852 59.4422 70.7842 60.3159 70.5207 61.3434C71.6853 60.5871 72.6832 60.0318 73.5726 59.3392C74.8685 58.3295 76.0463 58.3748 77.327 59.3646C78.2157 60.0517 79.2094 60.6056 80.3567 61.3489C80.0082 60.0448 79.8021 58.9322 79.41 57.8889C78.8222 56.3232 79.2067 55.1955 80.5946 54.2723C81.5151 53.6594 82.3353 52.8982 83.4176 52.0292C81.8325 51.9489 80.5511 51.8508 79.2682 51.8274C78.0248 51.8048 77.2765 51.2371 76.8817 50.0696C76.4764 48.8705 75.9778 47.7023 75.4245 46.2739C74.8589 47.7531 74.3748 48.9879 73.9142 50.2309C73.5456 51.2241 72.8803 51.7725 71.7828 51.8089C70.4377 51.8535 69.094 51.9448 67.7496 52.0162L67.7503 52.0155Z" fill="white"/>
<path d="M40.2989 59.9466C36.3252 57.733 34.3584 54.3505 33.5624 50.202C33.1364 47.983 33.1537 45.7584 33.754 43.5702C35.0748 38.7538 39.0852 35.9898 44.3203 36.219C47.1135 36.3412 49.666 37.0427 51.7089 39.062C53.5678 40.8988 54.4309 43.1934 54.6217 45.7248C54.9945 50.6695 53.7151 55.0513 49.888 58.4668C49.2801 59.0097 48.554 59.4215 47.859 59.9102C49.9772 60.2459 52.0899 60.53 54.1819 60.9247C57.1321 61.4807 59.9861 62.3139 62.4176 64.1823C64.7842 66.0012 66.0186 68.3589 66.0068 71.3639C65.984 77.2641 66.002 83.1642 65.9992 89.0637C65.9985 90.5044 65.5068 90.9972 64.0649 90.9972C50.6964 90.9993 37.3279 90.9993 23.9588 90.9972C22.4754 90.9972 22.0044 90.5113 22.0037 88.9937C22.0016 83.2466 22.0673 77.4981 21.9809 71.7524C21.9221 67.84 23.7063 65.1144 27.0224 63.2392C30.077 61.5116 33.4746 60.9117 36.8812 60.3687C37.9434 60.1992 39.0167 60.1017 40.2989 59.9459V59.9466ZM53.7255 88.0314V87.0162C53.7255 83.3784 53.7255 79.7405 53.7262 76.1027C53.7262 75.7973 53.7213 75.4904 53.749 75.1864C53.823 74.36 54.3188 73.9166 55.119 73.8335C55.8776 73.7553 56.5159 74.3119 56.6411 75.126C56.6874 75.4259 56.6798 75.7355 56.6805 76.0402C56.6826 79.6781 56.6819 83.3159 56.6819 86.9537C56.6819 87.3045 56.6819 87.6552 56.6819 88.0108H63.0428V87.0581C63.0428 81.8917 63.0048 76.7253 63.0601 71.5595C63.0857 69.1888 62.1016 67.4227 60.1493 66.1845C59.251 65.6148 58.2738 65.0979 57.2614 64.7842C49.7884 62.4677 42.2069 62.1849 34.5506 63.756C32.1648 64.2454 29.8079 64.8337 27.7554 66.2325C25.9 67.4975 24.9256 69.1874 24.9456 71.482C24.9912 76.7088 24.9601 81.9363 24.9601 87.1638C24.9601 87.4534 24.9601 87.7431 24.9601 88.0032H31.3197C31.3197 87.6072 31.3197 87.2736 31.3197 86.9393C31.3197 83.3015 31.3176 79.6637 31.3231 76.0258C31.3231 75.6614 31.3273 75.2873 31.4041 74.9338C31.5624 74.2055 32.0949 73.8321 32.8045 73.8376C33.5548 73.8438 34.0921 74.2405 34.2249 75.021C34.2809 75.3497 34.2733 75.6909 34.274 76.0265C34.2768 79.6945 34.2761 83.3633 34.2761 87.0313C34.2761 87.3573 34.2761 87.684 34.2761 88.032H53.7255V88.0314ZM51.7559 47.7221C51.787 42.1988 49.2566 39.4224 44.3811 39.1519C40.6377 38.9447 37.6779 40.6572 36.7699 43.8043C35.5797 47.9294 36.2463 51.8281 38.9628 55.2065C41.7795 58.7097 46.2297 58.6411 49.0976 55.1653C50.9938 52.8673 51.684 50.1547 51.7559 47.7228V47.7221Z" fill="white"/>
<path d="M8.91536 37.609C9.2888 36.2232 9.59585 35.1065 9.89046 33.987C10.1768 32.897 10.8932 31.6663 10.6048 30.7507C10.3185 29.8426 9.02186 29.242 8.15396 28.5241C7.39739 27.8974 6.61801 27.2982 5.85453 26.6804C5.14845 26.1094 4.80958 25.3921 5.09796 24.495C5.39257 23.5787 6.05439 23.1202 7.02879 23.0749C8.84344 22.9897 10.6567 22.8538 12.472 22.8058C13.147 22.788 13.4962 22.6026 13.7251 21.9279C14.2839 20.2806 14.9416 18.6662 15.5709 17.0429C15.9852 15.9735 16.6788 15.4121 17.5833 15.4478C18.6449 15.489 19.2341 16.1197 19.5826 17.0683C20.1933 18.7307 20.8593 20.3739 21.4561 22.0412C21.6511 22.5855 21.9339 22.7694 22.5155 22.7873C24.362 22.8442 26.2057 22.9856 28.0515 23.0687C29.0169 23.1126 29.7063 23.5217 30.0217 24.4394C30.3419 25.3708 29.9968 26.1135 29.2603 26.7051C27.8239 27.8583 26.3938 29.0196 24.9367 30.1474C24.4941 30.4899 24.3399 30.7891 24.5183 31.3732C25.0432 33.0961 25.4671 34.8484 25.9567 36.5822C26.2237 37.5267 26.0985 38.3441 25.2866 38.966C24.5584 39.524 23.7354 39.5034 22.7984 38.9042C21.324 37.9605 19.8447 37.0222 18.4028 36.0317C17.8254 35.635 17.4063 35.5629 16.7825 36.0036C15.2791 37.0654 13.7092 38.0346 12.1546 39.0237C11.4803 39.4526 10.7023 39.5645 10.0744 39.0683C9.56888 38.6688 9.24662 38.0401 8.91605 37.6076L8.91536 37.609ZM22.2666 35.0474C22.3191 35.0001 22.3724 34.952 22.4249 34.9047C22.066 33.5854 21.7092 32.2662 21.3482 30.947C21.0958 30.0238 21.342 29.2612 22.0895 28.6606C22.7112 28.161 23.3378 27.6681 23.9588 27.1678C24.4367 26.7827 24.9083 26.3915 25.5107 25.8986C24.492 25.8314 23.6953 25.7442 22.898 25.7318C19.4139 25.6783 19.6331 25.506 18.4803 22.4839C18.2092 21.7728 17.916 21.0692 17.5529 20.1612C17.064 21.431 16.6663 22.453 16.2763 23.4771C15.5363 25.4195 15.2576 25.6131 13.1968 25.701C12.064 25.749 10.9326 25.8327 9.60554 25.9117C10.8019 26.8651 11.7936 27.6867 12.8199 28.463C13.7659 29.1789 14.0827 30.0382 13.7258 31.1907C13.3413 32.433 13.0433 33.7021 12.6415 35.2039C13.9541 34.3549 15.0668 33.6671 16.1442 32.9279C17.0972 32.2738 18.0052 32.2594 18.963 32.9032C20.0522 33.6356 21.1642 34.3343 22.2666 35.0481V35.0474Z" fill="white"/>
<path d="M79.1603 37.493C78.7626 38.0243 78.45 38.6633 77.9452 39.0607C77.2841 39.581 76.4874 39.4403 75.7855 38.988C74.2626 38.0064 72.7184 37.0531 71.2398 36.0091C70.623 35.5732 70.2025 35.6261 69.6195 36.029C68.2053 37.0057 66.7475 37.9213 65.3014 38.8514C64.2938 39.4993 63.4992 39.5316 62.7295 38.9818C61.9806 38.4464 61.7662 37.6584 62.0733 36.5163C62.5414 34.777 62.9972 33.0336 63.5013 31.3039C63.6431 30.8179 63.5656 30.531 63.1569 30.216C61.6984 29.0903 60.2773 27.918 58.8319 26.7751C58.0657 26.1691 57.6473 25.4381 57.9737 24.4593C58.2939 23.497 59.0235 23.103 60.0228 23.0632C61.8381 22.9918 63.6507 22.8429 65.4667 22.8024C66.1113 22.7879 66.3671 22.5457 66.5684 21.978C67.161 20.3094 67.8256 18.6662 68.4439 17.0059C68.7848 16.0895 69.3796 15.4992 70.3948 15.4485C71.2972 15.4032 72.0165 15.9674 72.4238 17.021C73.0732 18.7019 73.726 20.3822 74.3346 22.0782C74.5178 22.5889 74.7799 22.7653 75.3263 22.7838C77.2031 22.8477 79.078 22.9836 80.9542 23.0728C81.9251 23.1188 82.5952 23.5574 82.8995 24.4758C83.1962 25.3722 82.8705 26.0997 82.1671 26.6694C80.7598 27.8095 79.356 28.9558 77.9141 30.0519C77.3795 30.4583 77.199 30.8104 77.4168 31.5002C77.9403 33.1585 78.3491 34.8532 78.8 36.5335C78.8705 36.797 78.9237 37.0654 78.9853 37.3317C79.0441 37.3853 79.1029 37.4395 79.1616 37.493H79.1603ZM65.576 34.9232L65.7489 35.0474C66.6458 34.4668 67.5953 33.9513 68.4287 33.2917C69.7896 32.2134 71.0469 32.1866 72.4203 33.2725C73.2689 33.9431 74.2377 34.464 75.3608 35.1854C74.9646 33.7124 74.6741 32.4708 74.2924 31.2572C73.9217 30.0787 74.2066 29.1912 75.2032 28.452C76.246 27.6784 77.2384 26.8383 78.3034 25.9865C78.1222 25.9103 78.0711 25.8712 78.0171 25.8684C76.8498 25.8053 75.6831 25.7298 74.5144 25.6893C72.8934 25.6337 72.448 25.3283 71.8567 23.8045C71.412 22.6589 70.9632 21.5147 70.4833 20.2847C70.3484 20.446 70.2973 20.4838 70.2779 20.5339C69.8457 21.6424 69.4169 22.7529 68.9874 23.8628C68.4266 25.3132 67.9695 25.6234 66.3803 25.6907C65.1417 25.7435 63.9045 25.8245 62.4626 25.9048C63.6396 26.8438 64.623 27.6681 65.6493 28.4355C66.6327 29.1706 66.955 30.0506 66.5808 31.2366C66.1977 32.4509 65.9066 33.6932 65.5746 34.9232H65.576Z" fill="white"/>
<path d="M18.8283 65.5043C18.618 65.411 18.1471 65.2648 17.7446 65.0108C16.1858 64.0286 14.6623 62.9908 13.0904 62.0299C12.8366 61.8747 12.3214 61.8727 12.0676 62.0278C10.5199 62.9688 9.01505 63.9785 7.49224 64.96C6.43623 65.6409 5.60844 65.6931 4.85326 65.1083C4.00748 64.4535 3.92865 63.6106 4.21219 62.6366C4.70596 60.9364 5.10914 59.2095 5.62849 57.5176C5.80968 56.9266 5.63818 56.6253 5.20319 56.2876C3.79656 55.1962 2.40929 54.0795 1.02065 52.9655C0.0932684 52.2214 -0.187504 51.4609 0.118856 50.5817C0.433515 49.6791 1.10225 49.2419 2.27721 49.1876C3.96876 49.1094 5.661 49.0071 7.35324 48.9797C8.08975 48.968 8.50122 48.7758 8.75295 48.0153C9.2896 46.3934 9.94935 44.8119 10.5669 43.2175C11.0033 42.0897 11.5973 41.623 12.5662 41.6203C13.5337 41.6175 14.1464 42.0897 14.5766 43.2037C15.2142 44.8565 15.8656 46.5046 16.4562 48.1738C16.6651 48.7641 16.9832 48.9584 17.5952 48.9714C19.3497 49.0092 21.1021 49.1176 22.8566 49.1835C23.8628 49.2213 24.6595 49.5576 25.0232 50.5686C25.3393 51.4472 25.0585 52.2228 24.1401 52.96C22.7999 54.0362 21.4762 55.1365 20.0938 56.1572C19.4721 56.6163 19.3573 57.0488 19.5827 57.7722C20.1104 59.4614 20.5606 61.176 21.0025 62.8906C21.3649 64.2949 20.4645 65.503 18.8276 65.505L18.8283 65.5043ZM7.64439 61.3503C8.93207 60.5171 10.0496 59.8341 11.1229 59.088C12.1077 58.403 13.0254 58.3934 14.0143 59.0798C15.0869 59.8245 16.2038 60.5075 17.5012 61.3469C17.1664 60.0915 16.9887 59.0304 16.6001 58.0523C15.9209 56.3439 16.376 55.1296 17.8953 54.1474C18.7681 53.5832 19.5364 52.8611 20.3518 52.2098C18.9666 51.9462 17.6837 51.8494 16.3995 51.8254C15.1512 51.8021 14.4154 51.2193 14.0226 50.0545C13.6188 48.8582 13.1201 47.6934 12.578 46.2966C12.2239 47.1903 11.9473 47.8547 11.6969 48.528C10.4576 51.859 10.7121 51.7664 6.88575 51.916C6.20871 51.9428 5.53237 51.9791 4.85603 52.0107C5.85394 53.0485 6.86777 53.8845 7.90787 54.6876C8.7896 55.3692 9.07176 56.1922 8.74811 57.2698C8.3643 58.5478 8.04825 59.8458 7.64508 61.3496L7.64439 61.3503Z" fill="white"/>
</g>
<defs>
<clipPath id="clip0_277_52">
<rect width="88" height="91" fill="white"/>
</clipPath>
</defs>
</svg>
