<svg width="45" height="45" viewBox="0 0 45 45" fill="none" xmlns="http://www.w3.org/2000/svg">
<g clip-path="url(#clip0_141_3669)">
<path d="M45 22.6367C45 10.2103 34.9264 0.136719 22.5 0.136719C10.0736 0.136719 0 10.2103 0 22.6367C0 33.8671 8.22797 43.1755 18.9844 44.8634V29.1406H13.2715V22.6367H18.9844V17.6797C18.9844 12.0406 22.3435 8.92579 27.483 8.92579C29.9447 8.92579 32.5195 9.36524 32.5195 9.36524V14.9024H29.6823C26.8873 14.9024 26.0156 16.6367 26.0156 18.416V22.6367H32.2559L31.2583 29.1406H26.0156V44.8634C36.7721 43.1755 45 33.8671 45 22.6367Z" fill="white"/>
</g>
<defs>
<clipPath id="clip0_141_3669">
<rect width="45" height="45" fill="white"/>
</clipPath>
</defs>
</svg>
