<svg width="90" height="90" viewBox="0 0 90 90" fill="none" xmlns="http://www.w3.org/2000/svg">
<path d="M22.8718 89.9971C21.7401 89.0955 21.6969 88.4422 22.7207 87.4165C25.2442 84.8862 27.7705 82.3596 30.3012 79.8365C30.5261 79.6125 30.7933 79.4289 30.9831 79.2742C29.7992 77.821 28.6944 76.5064 27.6409 75.1513C27.1947 74.5772 26.7431 73.9608 26.4911 73.2896C25.4502 70.5137 23.2479 68.6943 21.1508 66.6382C19.9389 68.5377 18.28 69.4798 16.0416 68.6826C14.2126 68.0311 13.0808 66.7381 12.9711 64.7064C10.5861 64.2115 8.89564 63.039 8.64013 60.5142C7.81065 60.1453 6.97936 59.8663 6.24344 59.4272C5.19264 58.7992 4.5071 57.849 4.41084 56.5893C4.37306 56.0899 4.08247 56.0539 3.7199 55.8775C2.76627 55.4132 1.72626 54.9741 0.990341 54.2507C-0.219699 53.0602 -0.2179 51.5252 0.443349 50.0063C0.663765 49.5006 0.956154 49.0255 1.24404 48.4847C1.00923 48.2364 0.769025 47.9898 0.535114 47.7361C-0.0865495 47.0621 -0.135131 46.345 0.398366 45.7871C0.91567 45.2463 1.58502 45.2391 2.28675 45.7718C2.37941 45.842 2.46038 45.9275 2.62682 46.0778C2.88592 45.6387 3.15402 45.2365 3.36904 44.8081C3.78918 43.9722 4.17063 43.1174 4.58537 42.2788C4.98842 41.4636 5.66496 41.1747 6.3712 41.4906C7.06753 41.8019 7.34553 42.5406 6.97487 43.3478C6.41348 44.5688 5.81971 45.7781 5.18275 46.9614C4.47652 48.2751 3.68392 49.5429 2.97139 50.853C2.4226 51.8608 2.62862 52.5221 3.57146 53.0593C4.50621 53.592 5.19444 53.4345 5.78732 52.4511C6.75355 50.8467 7.6703 49.2136 8.60865 47.593C8.79937 47.2637 8.9847 46.9317 9.17813 46.6041C9.74132 45.6486 10.4412 45.3498 11.1673 45.7529C11.905 46.1632 12.0183 46.9272 11.4723 47.8891C10.9082 48.8815 10.3342 49.8677 9.76561 50.8566C8.96221 52.2513 8.14622 53.6388 7.36082 55.0434C6.75715 56.1232 6.91729 56.7953 7.85383 57.355C8.84346 57.9462 9.53259 57.7671 10.1794 56.6711C11.3391 54.706 12.4529 52.7129 13.6116 50.7468C14.0219 50.0513 14.792 49.8524 15.4245 50.2025C16.056 50.5516 16.2494 51.2912 15.8932 52.0372C15.7924 52.2477 15.6647 52.4457 15.5477 52.6481C14.2621 54.8787 12.9648 57.1039 11.6936 59.3426C11.1052 60.3792 11.2132 61.0019 12.0022 61.5697C12.9972 62.2859 13.7898 62.1599 14.4294 61.0982C15.4406 59.4191 16.4033 57.7104 17.3857 56.0143C18.065 54.8418 18.7271 54.4918 19.4972 54.9021C20.3051 55.3331 20.3618 56.1322 19.6699 57.3334C18.4428 59.4632 17.2004 61.5841 15.9948 63.7256C15.3588 64.8557 15.6359 65.6467 16.7631 66.1443C17.6232 66.524 18.1738 66.3125 18.8063 65.3596C20.8143 62.3363 22.8106 59.3049 24.834 56.2923C26.8465 53.2969 29.5275 51.0978 32.8472 49.6797C33.0892 49.5762 33.3312 49.4682 33.5823 49.3944C34.3407 49.1704 34.992 49.4484 35.2655 50.0972C35.5543 50.7801 35.2664 51.4784 34.5242 51.8383C33.5544 52.3071 32.5755 52.7588 31.5904 53.2231C32.5018 54.0869 33.3366 54.8787 34.2264 55.7218C35.0082 55.2305 35.9151 54.5953 36.4369 53.4966C36.9128 52.4952 37.5219 51.5567 38.0715 50.5903C38.9721 49.0075 39.1844 47.3042 38.336 45.7115C36.9929 43.1894 35.4895 40.75 33.9808 38.3206C33.2413 37.1301 32.3353 36.0441 31.513 34.904C30.8932 34.0447 30.9355 33.5021 31.6858 32.7382C32.7528 31.6521 33.8297 30.5751 34.9012 29.4935C34.9209 29.4737 34.9308 29.444 35.0037 29.3225C32.302 26.5836 28.8213 24.891 25.7039 22.5533C24.2537 24.0074 22.8628 25.4219 21.4441 26.8085C21.1175 27.1279 20.7297 27.4285 20.3141 27.6057C15.6035 29.6105 12.0588 32.8633 9.72332 37.4262C9.59017 37.6862 9.46782 37.9535 9.32207 38.2063C8.87225 38.9909 8.18131 39.2501 7.48947 38.9036C6.81113 38.5644 6.56552 37.805 6.97847 37.0276C7.6775 35.712 8.43501 34.4271 9.21052 33.0549C9.03418 32.8696 8.82186 32.6356 8.59875 32.4116C6.01133 29.821 3.42302 27.2323 0.8356 24.6418C0.649371 24.4555 0.444249 24.2792 0.296705 24.065C-0.104543 23.4828 -0.0757536 22.8935 0.418159 22.3869C0.912971 21.8794 1.51034 21.8299 2.09152 22.2276C2.401 22.44 2.65201 22.7396 2.92101 23.0086C5.5669 25.6577 8.2101 28.3094 10.757 30.8621C12.4943 29.5322 14.1532 28.2545 15.823 26.9903C16.101 26.7797 16.4033 26.5737 16.7281 26.4558C19.5116 25.4435 21.3325 23.2327 23.3801 21.1254C21.489 19.916 20.5282 18.2586 21.3289 16.0208C21.9794 14.2041 23.2488 13.037 25.309 12.9444C25.8065 10.5365 26.9977 8.82506 29.6606 8.58751C29.873 7.2531 30.3975 6.09866 31.4321 5.23755C31.7425 4.9793 32.1104 4.65088 32.473 4.62208C33.6695 4.5276 34.0447 3.83116 34.4396 2.78109C35.4364 0.132071 37.9609 -0.687649 40.47 0.638659C40.8047 0.81592 41.134 1.00308 41.5226 1.21723C41.7718 0.981484 42.0192 0.743036 42.2712 0.509987C42.9459 -0.115375 43.6584 -0.167563 44.2189 0.36422C44.7605 0.877107 44.7695 1.54566 44.2423 2.2547C44.173 2.34828 44.0885 2.43017 43.9058 2.63712C44.8649 3.13021 45.7744 3.6224 46.7047 4.0714C49.4675 5.40581 52.2924 6.62234 54.9941 8.07012C59.2081 10.3286 62.1689 13.8145 64.3047 18.0606C64.7536 18.9523 65.3897 19.7711 66.0491 20.5288C66.9083 21.5168 67.8772 22.4103 68.856 23.4028C70.0337 21.5582 71.5694 20.5828 73.7115 21.227C75.6755 21.8173 76.9125 23.1067 77.0591 25.2851C79.4522 25.7773 81.1598 26.9732 81.3838 29.4206C82.3743 29.9137 83.345 30.2295 84.0981 30.8234C84.7035 31.3003 85.2802 32.0597 85.4457 32.7895C85.6599 33.7325 86.071 34.06 86.9536 34.3084C88.5172 34.7475 89.4843 35.9091 90.0016 37.4406V39.0224C89.6103 39.8511 89.2189 40.6799 88.8213 41.5212C89.2126 41.9747 89.6067 42.4327 90.0016 42.8898V43.7689C89.586 44.0532 89.1901 44.5202 88.7475 44.5706C88.3102 44.6201 87.8244 44.2494 87.2756 44.0289C85.2037 48.3057 83.1075 52.631 80.9411 57.103C82.108 58.2701 83.4566 59.6036 84.789 60.9524C86.5325 62.7187 88.2644 64.4967 90.0007 66.2702V67.1493C89.0992 68.2804 88.4443 68.3227 87.4196 67.3005C84.87 64.7559 82.3257 62.2058 79.777 59.6594C79.5575 59.4398 79.3281 59.2311 79.1391 59.052C78.1882 59.896 77.3011 60.6591 76.4411 61.4509C74.2531 63.4682 71.1853 64.1314 69.0495 66.2567C68.8309 66.4745 67.9807 66.2801 67.5767 66.03C67.0666 65.7141 66.9389 65.006 67.35 64.5516C68.0634 63.7625 68.7994 62.8375 69.7278 62.4236C74.4627 60.3144 78.0712 57.0643 80.3717 52.4097C82.5722 47.9557 84.4003 43.3172 87.0678 39.0944C87.6688 38.1433 87.3323 37.3695 86.3283 36.8719C85.434 36.4283 84.7872 36.6199 84.2078 37.5971C83.0445 39.5605 81.9245 41.5491 80.772 43.5187C80.2565 44.3987 79.5116 44.6444 78.8081 44.2107C78.1405 43.7995 78.0128 43.0562 78.495 42.205C79.2165 40.9318 79.956 39.6703 80.6874 38.4034C81.2866 37.3641 81.8867 36.3257 82.4823 35.2837C83.2695 33.907 83.1723 33.2025 82.1188 32.6041C81.0743 32.0103 80.4508 32.2811 79.6357 33.683C79.4153 34.0627 79.1958 34.4424 78.9763 34.8221C78.1423 36.2663 77.32 37.7177 76.4707 39.1529C75.9975 39.9519 75.2193 40.1778 74.5473 39.7594C73.9139 39.3652 73.7808 38.6247 74.2045 37.8239C74.3278 37.5917 74.4654 37.3668 74.5977 37.1382C75.8563 34.9589 77.1293 32.7886 78.3663 30.5976C78.9601 29.5457 78.7649 28.8439 77.8238 28.2977C76.8495 27.7317 76.2125 27.9108 75.5612 28.9491C75.3129 29.345 75.088 29.7572 74.8541 30.1621C74.0192 31.6062 73.1888 33.0522 72.3494 34.4937C72.003 35.0894 71.4507 35.4556 70.8164 35.1551C70.408 34.9625 70.0274 34.4784 69.8799 34.0429C69.7773 33.7397 70.0355 33.2637 70.2298 32.92C71.4965 30.6786 72.8082 28.4623 74.0669 26.2164C74.6867 25.1106 74.3656 24.299 73.214 23.8275C72.3854 23.4891 71.8438 23.7024 71.2392 24.6112C69.2303 27.6336 67.2376 30.6669 65.2124 33.6785C63.1108 36.8035 60.3048 39.071 56.8033 40.4666C55.7849 40.8724 55.0292 40.6376 54.7368 39.8484C54.4561 39.0899 54.8385 38.4645 55.7966 38.0281C56.6936 37.6196 57.5734 37.1715 58.42 36.7603C57.5464 35.8632 56.7412 35.0354 55.9334 34.2058C54.8916 34.7906 54.0162 35.56 53.4809 36.7009C52.7873 38.1793 52.0207 39.6226 51.3127 41.0938C50.978 41.7893 50.3501 42.1384 49.6825 41.9216C48.9664 41.6894 48.6272 41.0407 48.8297 40.2461C48.9421 39.8034 49.0915 39.3697 49.2687 38.7858C45.9678 40.6834 42.7705 42.4561 38.767 40.6556C40.703 44.0469 42.4826 47.2448 40.6806 51.2498C44.0651 49.3126 47.2625 47.539 51.1967 49.3054C50.6263 48.2121 50.109 47.2997 49.6681 46.3513C49.3182 45.5973 49.5953 44.8594 50.2493 44.5517C50.9205 44.2359 51.6573 44.4707 52.0189 45.2104C53.7283 48.7052 56.1007 51.7609 58.3669 54.8877C59.1937 56.0287 59.1631 56.4435 58.1519 57.454C57.1056 58.4995 56.0512 59.537 54.8826 60.695C56.0602 61.62 57.0714 62.5099 58.1753 63.2631C61.0767 65.2417 64.0186 67.1592 66.9434 69.1028C68.2488 69.9702 69.0342 71.1229 68.955 72.7578C68.8452 75.0217 67.2151 76.707 64.7221 77.0804C64.2327 79.4856 62.9894 81.1871 60.3642 81.422C59.8874 83.9315 58.7457 85.1409 56.4695 85.6583C56.2716 85.7032 56.0026 85.9336 55.9657 86.1181C55.5735 88.0697 54.4426 89.3537 52.5713 90.0007H50.9897C50.1611 89.6102 49.3317 89.2188 48.4905 88.822C48.038 89.2125 47.5809 89.6066 47.1239 90.0007H46.2449C45.9606 89.585 45.4937 89.19 45.4433 88.7473C45.393 88.31 45.7627 87.8241 45.9813 87.2779C41.7053 85.2048 37.3824 83.1082 32.9075 80.9379C31.7452 82.104 30.4146 83.4555 29.0669 84.7882C27.3026 86.5329 25.524 88.2641 23.7517 90.0007H22.8727L22.8718 89.9971ZM67.4634 25.6451C65.9996 24.1973 64.6079 22.8557 63.2629 21.4691C62.867 21.0606 62.5198 20.5603 62.2894 20.0411C60.4424 15.8687 57.6661 12.5205 53.6446 10.3025C48.8333 7.64902 43.6053 5.81342 38.9496 2.84137C38.175 2.34738 37.5138 2.64252 37.0135 3.42985C36.3919 4.40793 36.5511 5.14937 37.6082 5.77743C39.5695 6.94357 41.5595 8.06113 43.5289 9.21467C44.4087 9.73026 44.657 10.4753 44.2261 11.1789C43.8159 11.8493 43.0736 11.9798 42.2226 11.4975C40.8992 10.747 39.5866 9.9777 38.2686 9.21737C37.2043 8.60281 36.1454 7.97924 35.0739 7.37818C33.9034 6.72132 33.1882 6.87339 32.6223 7.86947C32.0519 8.87275 32.2778 9.50081 33.4725 10.218C33.8989 10.4735 34.3317 10.72 34.7617 10.9684C36.2308 11.8187 37.7063 12.6573 39.1655 13.522C39.9671 13.9971 40.192 14.7709 39.7728 15.4449C39.3788 16.0784 38.6374 16.2133 37.8367 15.7886C37.5785 15.6519 37.3302 15.4953 37.0765 15.3495C34.8958 14.0943 32.7249 12.822 30.5306 11.5919C29.5266 11.0296 28.8537 11.2383 28.3175 12.1651C27.7696 13.1126 27.9306 13.7461 28.8968 14.3849C29.1892 14.5784 29.4978 14.7476 29.8019 14.923C31.3718 15.8309 32.9444 16.7352 34.5125 17.6467C35.109 17.994 35.4706 18.5483 35.1692 19.1818C34.9749 19.5894 34.49 19.9682 34.0537 20.114C33.7496 20.2157 33.2746 19.9574 32.9309 19.7631C30.6899 18.4952 28.474 17.1824 26.2293 15.9227C25.1102 15.2946 24.2276 15.669 23.8057 16.8657C23.5214 17.6728 23.7625 18.1767 24.7098 18.8066C27.7813 20.8473 30.868 22.8665 33.9142 24.9441C36.9488 27.0128 39.125 29.7913 40.4826 33.2061C40.8875 34.2247 40.6464 34.976 39.8493 35.2666C39.0945 35.5429 38.4719 35.1542 38.0365 34.1941C37.6307 33.3006 37.1827 32.426 36.7931 31.6242C35.8962 32.4935 35.0694 33.2952 34.2399 34.0987C34.8256 35.1335 35.5948 36.0162 36.7428 36.5354C37.2736 36.7756 37.7882 37.0734 38.2614 37.4118C40.874 39.2798 43.5379 39.1538 46.1379 37.4919C49.1184 35.587 52.0297 33.5723 54.9554 31.582C56.0206 30.8576 56.4714 30.8576 57.389 31.7799C58.4542 32.8498 59.5086 33.9322 60.6215 35.0642C63.4104 32.2109 65.1396 28.7863 67.4589 25.6442L67.4634 25.6451ZM22.5749 64.3123C23.982 65.7177 25.3297 67.0162 26.6162 68.374C27.0867 68.8697 27.5024 69.4627 27.7858 70.0836C29.64 74.1426 32.3524 77.4296 36.2794 79.6251C41.1025 82.3209 46.3835 84.1151 51.0482 87.1348C51.8426 87.6495 52.5479 87.3346 53.0464 86.5113C53.5682 85.6493 53.4503 84.9501 52.6586 84.367C52.377 84.1601 52.0648 83.9936 51.7607 83.8182C49.9893 82.7915 48.2098 81.7765 46.4456 80.7372C45.6143 80.2477 45.384 79.5198 45.787 78.8306C46.1865 78.1485 46.9305 78.0135 47.7825 78.476C48.0137 78.6011 48.2368 78.7424 48.4653 78.8737C50.6704 80.1443 52.8691 81.4274 55.085 82.679C56.1106 83.2585 56.7943 83.0911 57.3431 82.2156C57.9585 81.2339 57.7956 80.5114 56.7251 79.8752C54.7629 78.71 52.7711 77.596 50.8053 76.4371C50.0559 75.9953 49.8499 75.2224 50.2385 74.5664C50.6074 73.9437 51.3298 73.7764 52.0846 74.1507C52.3464 74.2803 52.5965 74.4341 52.8502 74.5799C55.0823 75.863 57.3017 77.1686 59.55 78.4221C60.5252 78.9655 61.2179 78.7154 61.7388 77.7652C62.2436 76.8456 62.0744 76.2112 61.1577 75.6102C60.9373 75.4662 60.7033 75.3429 60.4757 75.2116C58.8294 74.2605 57.1812 73.3112 55.5357 72.3583C54.9779 72.0353 54.583 71.5305 54.8268 70.9168C54.995 70.4939 55.4367 70.0557 55.8587 69.8973C56.1808 69.7768 56.7044 70.0089 57.0669 70.2123C59.3116 71.4738 61.5256 72.7875 63.7694 74.0499C64.8868 74.678 65.6865 74.3765 66.1688 73.2284C66.5268 72.3772 66.3028 71.8373 65.3384 71.1975C62.3398 69.2063 59.335 67.2222 56.3472 65.2157C53.1939 63.0975 50.9115 60.2676 49.5197 56.7287C49.14 55.7641 49.3838 55.0317 50.145 54.7339C50.9025 54.4387 51.5412 54.8175 51.974 55.7677C52.3833 56.6675 52.8313 57.5511 53.2425 58.4006C54.134 57.5313 54.9617 56.7242 55.7921 55.9135C55.2118 54.8436 54.4093 53.9573 53.2326 53.4264C52.6487 53.1628 52.0882 52.829 51.561 52.4637C49.2111 50.8359 46.818 50.8638 44.3737 52.2207C44.0921 52.3764 43.7898 52.4988 43.5235 52.6769C40.8056 54.5053 38.0778 56.3193 35.3852 58.1846C33.9133 59.2041 33.6506 59.2311 32.41 57.983C31.4249 56.9924 30.4532 55.9882 29.4159 54.9282C26.609 57.7392 24.9158 61.1926 22.5749 64.3114V64.3123Z" fill="white"/>
</svg>
