<svg width="32" height="32" viewBox="0 0 32 32" fill="none" xmlns="http://www.w3.org/2000/svg">
<path d="M29.0007 23.924C28.9695 24.0583 28.9423 24.1943 28.907 24.3278C28.6652 25.2511 27.9006 25.8949 26.9638 25.9441C26.5626 25.9654 26.1591 25.9662 25.7579 25.9474C25.195 25.9203 24.7403 25.6443 24.3519 25.2404C23.9604 24.8333 23.8011 24.3287 23.773 23.7724C23.7634 23.5717 23.7674 23.3711 23.7674 23.1704C23.7674 18.2537 23.7674 13.337 23.7666 8.42028C23.7666 8.05985 23.7955 7.7076 23.9476 7.37584C24.2831 6.64431 24.8235 6.16837 25.6162 6.06598C26.023 6.01355 26.4393 6.04058 26.8509 6.0373C27.3105 6.03403 27.734 6.17165 28.0991 6.45017C28.5731 6.81224 28.8678 7.29801 28.9543 7.90502C28.9639 7.97056 28.9623 7.97138 28.9999 7.97793V23.9248L29.0007 23.924ZM24.8812 15.9829C24.8812 18.4503 24.8812 20.9168 24.8812 23.3842C24.8812 23.5201 24.8812 23.6561 24.8844 23.7921C24.8996 24.4081 25.4144 24.8153 25.9429 24.8218C26.2159 24.8251 26.489 24.8128 26.7612 24.8251C27.2696 24.8472 27.8878 24.4458 27.887 23.6774C27.8781 18.5666 27.8829 13.4558 27.8829 8.34492C27.8829 8.29413 27.8837 8.24252 27.8829 8.19173C27.8669 7.67975 27.4922 7.23084 26.9942 7.18415C26.6115 7.14892 26.2223 7.14483 25.8388 7.17268C25.3424 7.20954 24.9741 7.56916 24.8988 8.05329C24.8716 8.22942 24.882 8.41291 24.882 8.59313C24.8812 11.0564 24.882 13.5205 24.882 15.9837L24.8812 15.9829Z" fill="black"/>
<path d="M16.848 18.1518C16.848 16.3284 16.8568 14.5041 16.8448 12.6806C16.8376 11.5526 17.5062 10.8194 18.274 10.5089C18.4678 10.4311 18.6864 10.3902 18.8945 10.3836C19.3461 10.3705 19.8017 10.3574 20.2485 10.4065C20.9002 10.4778 21.3847 10.8538 21.7354 11.4117C21.9451 11.7443 22.0636 12.1121 22.0668 12.5077C22.0749 13.6644 22.0757 14.8219 22.0765 15.9786C22.0773 18.4558 22.0765 20.9329 22.0765 23.4101C22.0765 23.7812 22.0725 24.1523 21.9379 24.5054C21.6049 25.3811 20.9699 25.8627 20.0643 25.9406C19.6224 25.9791 19.1724 25.9717 18.7296 25.9365C18.2108 25.8955 17.792 25.6162 17.4333 25.2418C17.0017 24.7921 16.8448 24.2391 16.8456 23.6239C16.8472 21.8005 16.8456 19.9762 16.8456 18.1527H16.8464L16.848 18.1518ZM17.9665 18.1731C17.9665 19.9696 17.9665 21.766 17.9665 23.5625C17.9665 23.6542 17.9689 23.746 17.9762 23.8377C18.017 24.3325 18.3541 24.7413 18.8361 24.7929C19.2404 24.8363 19.6552 24.8404 20.0595 24.7986C20.6032 24.7413 20.9515 24.303 20.9627 23.7435C20.9651 23.6182 20.9563 23.4921 20.9563 23.3659C20.9555 21.3827 20.9539 19.3986 20.9547 17.4154C20.9555 15.8131 20.9619 14.2108 20.9643 12.6085C20.9651 12.0408 20.5976 11.5886 20.0491 11.5296C19.6968 11.492 19.3381 11.5059 18.9826 11.5108C18.4966 11.5173 18.0914 11.8589 17.9994 12.348C17.9657 12.5266 17.9673 12.7125 17.9673 12.896C17.9649 14.6548 17.9657 16.4144 17.9657 18.1731H17.9665Z" fill="black"/>
<path d="M9.92332 20.0015C9.92332 18.8113 9.93533 17.6202 9.92011 16.4299C9.9057 15.2659 10.7088 14.4205 11.5583 14.2001C11.7369 14.1534 11.9258 14.1297 12.11 14.1272C12.4887 14.1215 12.8698 14.1149 13.2462 14.1485C14.0717 14.2214 14.8259 14.8776 15.0557 15.6886C15.1294 15.9491 15.1574 16.2145 15.1574 16.484C15.1574 18.876 15.1614 21.268 15.1566 23.6591C15.155 24.3096 14.954 24.8904 14.4848 25.3499C14.1157 25.7112 13.6689 25.9135 13.1613 25.943C12.7537 25.9668 12.3438 25.9676 11.9354 25.952C11.3405 25.9299 10.8665 25.6342 10.4694 25.2016C10.0618 24.7568 9.92652 24.2072 9.92492 23.6149C9.92171 22.4107 9.92412 21.2065 9.92412 20.0023L9.92332 20.0015ZM14.0372 20.0417C14.0372 19.184 14.0372 18.3263 14.0372 17.4694C14.0372 17.0615 14.0412 16.6527 14.0284 16.2448C14.0148 15.7959 13.6657 15.3855 13.2317 15.3085C12.8066 15.2331 12.375 15.2454 11.9482 15.2855C11.5047 15.3265 11.154 15.6632 11.0683 16.108C11.0323 16.2988 11.0427 16.5004 11.0427 16.697C11.0411 18.8948 11.0411 21.0935 11.0427 23.2913C11.0427 23.4814 11.0419 23.6722 11.0515 23.8623C11.0779 24.3554 11.4855 24.788 12.0483 24.8191C12.3734 24.8371 12.7009 24.833 13.026 24.8191C13.4287 24.8019 13.733 24.6069 13.9251 24.2391C14.0204 24.0564 14.0372 23.8582 14.0372 23.655C14.0372 22.4509 14.0372 21.2458 14.0372 20.0417Z" fill="black"/>
<path d="M8.23058 22.1185C8.23058 22.6698 8.24499 23.2211 8.22658 23.7716C8.20416 24.4442 7.96075 25.0201 7.44271 25.4575C7.04477 25.7934 6.58357 25.9531 6.07274 25.9613C5.71403 25.967 5.35372 25.9711 4.99582 25.9498C4.33925 25.9105 3.83402 25.5763 3.43929 25.0553C3.11901 24.6309 3.00291 24.1378 3.00211 23.6111C2.99971 22.5904 2.99891 21.5697 3.00211 20.5498C3.00451 19.6495 3.39044 18.9713 4.1527 18.5215C4.44254 18.3503 4.76202 18.2627 5.0951 18.2561C5.50345 18.2479 5.915 18.2324 6.32095 18.2717C7.37465 18.3749 8.06084 19.2555 8.19055 20.0894C8.22017 20.2795 8.22818 20.4753 8.23058 20.6686C8.23619 21.1519 8.23218 21.6344 8.23218 22.1177L8.23058 22.1185ZM7.11843 22.0964H7.11523C7.11523 21.532 7.12564 20.9668 7.11202 20.4032C7.09921 19.8502 6.65563 19.4071 6.11677 19.3923C5.7909 19.3833 5.46502 19.3841 5.13914 19.3964C4.53863 19.4194 4.11827 19.8732 4.11827 20.4859C4.11827 21.5705 4.11827 22.6559 4.11827 23.7405C4.11827 24.336 4.58587 24.8177 5.16716 24.8218C5.4498 24.8235 5.73245 24.8235 6.01509 24.8218C6.68126 24.8177 7.11843 24.3672 7.11843 23.6873C7.11843 23.1564 7.11843 22.6264 7.11843 22.0956V22.0964Z" fill="black"/>
</svg>
