<svg width="33" height="34" viewBox="0 0 33 34" fill="none" xmlns="http://www.w3.org/2000/svg">
<g clip-path="url(#clip0_115_33)">
<path d="M16.6663 0.0146484C16.9661 0.208451 17.0424 0.493944 17.0382 0.832577C17.0288 1.80055 17.0361 2.76956 17.033 3.73752C17.033 3.86881 17.0299 4.0053 16.9933 4.1293C16.917 4.39291 16.7237 4.52732 16.45 4.52003C16.1898 4.51377 16.0091 4.37832 15.9391 4.1293C15.9035 4.00426 15.9004 3.86881 15.8994 3.73752C15.8962 2.76956 15.9035 1.80055 15.8941 0.832577C15.891 0.493944 15.9673 0.208451 16.2661 0.0146484H16.6642L16.6663 0.0146484Z" fill="#B9B9B9"/>
<path d="M5.71216 15.7803C5.93994 12.0262 7.79034 8.81387 11.512 6.88105C15.077 5.02951 18.69 5.19831 22.1338 7.28012C24.819 8.90243 26.5043 11.3208 27.0226 14.3997C27.7801 18.901 26.2327 22.5436 22.5538 25.2766C22.4326 25.3662 22.3292 25.5423 22.3072 25.6903C22.0857 27.2178 21.882 28.7484 21.6741 30.278C21.5926 30.874 21.2405 31.3324 20.8873 31.7836C18.3693 35.0063 13.189 34.4739 11.4284 30.7875C11.1819 30.2717 11.1787 29.634 11.0931 29.0474C10.9248 27.8919 10.7838 26.7322 10.6114 25.5767C10.5926 25.4506 10.462 25.3152 10.3481 25.2349C9.24265 24.4556 8.29917 23.5189 7.54585 22.3967C6.28473 20.5181 5.67664 18.4446 5.71216 15.7793V15.7803ZM19.1101 18.4404C19.4371 18.207 19.7296 17.9903 20.0295 17.785C20.3774 17.5464 20.7118 17.5808 20.9051 17.8653C21.089 18.1341 21.0117 18.4571 20.694 18.6946C20.3576 18.9458 20.0065 19.1771 19.6743 19.4344C19.3953 19.6501 19.1132 19.7856 18.7465 19.6011V24.3014C18.8697 24.3066 18.9774 24.3159 19.086 24.3159C19.9376 24.317 20.7901 24.3264 21.6417 24.3087C21.8235 24.3045 22.0325 24.2368 22.1798 24.1305C25.4762 21.7621 26.9035 17.3974 25.6559 13.5328C24.0761 8.63882 19.0369 5.84536 14.0698 7.10924C10.2394 8.0845 7.31703 11.3739 6.91581 15.2844C6.53654 18.9895 7.90422 21.9674 10.8872 24.2055C10.9823 24.2774 11.1275 24.3107 11.2508 24.3118C12.1473 24.3201 13.0427 24.317 13.9392 24.3149C14.0228 24.3149 14.1064 24.2982 14.1941 24.2889V19.698C13.9434 19.6605 13.6769 19.6897 13.4941 19.5803C13.0406 19.3084 12.6185 18.9822 12.1974 18.6613C11.9185 18.4477 11.8683 18.1226 12.0439 17.8715C12.2298 17.6048 12.5485 17.5548 12.864 17.7611C13.1232 17.9299 13.3771 18.108 13.6184 18.3008C13.7636 18.4164 13.8692 18.4279 14.0196 18.306C14.2599 18.1122 14.5201 17.9434 14.7719 17.7631C15.0164 17.5871 15.2619 17.585 15.5085 17.76C15.7697 17.9455 16.0226 18.1445 16.2963 18.3102C16.3799 18.3612 16.545 18.3633 16.6286 18.3133C16.8846 18.1622 17.1238 17.9809 17.36 17.7996C17.6452 17.5818 17.92 17.5787 18.2084 17.7944C18.4988 18.0122 18.7987 18.2185 19.1111 18.4415L19.1101 18.4404ZM20.8769 27.72H12.0512C12.1713 28.5796 12.2842 29.4173 12.4106 30.253C12.4461 30.4895 12.6164 30.5405 12.8484 30.5395C15.1042 30.5312 17.36 30.5343 19.6168 30.5343C20.4798 30.5343 20.4861 30.5353 20.6167 29.6705C20.7139 29.0297 20.7891 28.3858 20.8769 27.72ZM17.5689 24.2993V19.0416C17.3161 19.2229 17.0998 19.374 16.8877 19.5313C16.6014 19.7449 16.3224 19.7428 16.0362 19.5282C15.8209 19.3667 15.5994 19.2156 15.3549 19.0416V24.2993H17.5689ZM11.8976 26.5509H21.0367C21.0869 26.1779 21.1339 25.8236 21.182 25.461H11.7492C11.7994 25.8289 11.8464 26.1769 11.8976 26.5509ZM19.3807 31.6908H13.5515C15.008 33.1319 17.9378 33.1319 19.3807 31.6908Z" fill="#B9B9B9"/>
<path d="M10.8496 5.70578C10.7211 5.85165 10.6145 6.07775 10.4547 6.12672C10.2781 6.18091 10.0461 6.08921 9.84969 6.02461C9.77342 5.99961 9.72327 5.8777 9.67416 5.7933C9.15383 4.90035 8.63037 4.00845 8.12363 3.10716C8.03691 2.954 7.95437 2.73206 8.00347 2.58619C8.05989 2.41635 8.24274 2.21421 8.40782 2.17462C8.56873 2.13503 8.82158 2.23401 8.95218 2.358C9.12876 2.5268 9.2322 2.77478 9.35862 2.99255C9.78491 3.72504 10.2102 4.45648 10.6291 5.19314C10.7085 5.33276 10.7587 5.49009 10.8506 5.70578H10.8496Z" fill="#B9B9B9"/>
<path d="M2.32481 15.8397C2.84409 15.8397 3.36232 15.8366 3.88161 15.8408C4.29954 15.8449 4.56284 16.0669 4.56388 16.4013C4.56388 16.7358 4.29849 16.964 3.8837 16.965C2.82423 16.9692 1.76373 16.9703 0.703225 16.965C0.282157 16.963 0.0387108 16.7389 0.0481143 16.3878C0.056473 16.0502 0.29365 15.846 0.701135 15.8408C1.24236 15.8345 1.78358 15.8397 2.32376 15.8387L2.32481 15.8397Z" fill="#B9B9B9"/>
<path d="M30.6085 16.9672C30.0892 16.9672 29.5709 16.9713 29.0517 16.9661C28.6348 16.962 28.3694 16.7379 28.3694 16.4045C28.3694 16.069 28.6337 15.8429 29.0506 15.8419C30.1101 15.8377 31.1706 15.8377 32.23 15.8419C32.6511 15.844 32.8935 16.0659 32.8852 16.4191C32.8768 16.7546 32.6375 16.962 32.2321 16.9661C31.6909 16.9724 31.1497 16.9672 30.6095 16.9682L30.6085 16.9672Z" fill="#B9B9B9"/>
<path d="M2.66218 24.9245C2.51381 24.8005 2.29231 24.7004 2.23275 24.54C2.17111 24.3764 2.2641 24.1524 2.29962 23.9575C2.30589 23.9231 2.35709 23.8898 2.39366 23.869C3.41446 23.2813 4.43108 22.6864 5.46024 22.1143C5.72772 21.9664 5.98057 22.081 6.14774 22.33C6.31074 22.5707 6.24909 22.8656 6.00251 23.0625C5.90012 23.1438 5.78205 23.2063 5.66712 23.273C4.83752 23.7523 4.00793 24.2316 3.17415 24.7046C3.03414 24.7838 2.87637 24.8338 2.66114 24.9255L2.66218 24.9245Z" fill="#B9B9B9"/>
<path d="M30.7579 8.61385C30.6952 8.69408 30.6043 8.90247 30.4455 8.99729C29.4905 9.56932 28.5219 10.1215 27.5513 10.6675C27.2608 10.8311 26.9526 10.7425 26.7938 10.4894C26.6245 10.2205 26.6788 9.88919 26.9766 9.71206C27.9535 9.13274 28.9367 8.5628 29.9314 8.01473C30.3316 7.79488 30.7568 8.0637 30.7568 8.61281L30.7579 8.61385Z" fill="#B9B9B9"/>
<path d="M30.7557 24.2847C30.7453 24.7661 30.3106 24.9995 29.8843 24.7745C29.4643 24.5536 29.06 24.3045 28.6483 24.068C28.1322 23.7711 27.6129 23.4783 27.0988 23.1771C26.7112 22.95 26.5962 22.6385 26.776 22.3332C26.9504 22.0373 27.2691 21.9779 27.6453 22.1915C28.5564 22.7093 29.4633 23.2345 30.3723 23.7565C30.5938 23.8836 30.7672 24.042 30.7547 24.2837L30.7557 24.2847Z" fill="#B9B9B9"/>
<path d="M25.0164 2.60697C24.937 2.81641 24.9056 2.94665 24.8419 3.05814C24.3101 3.98651 23.7772 4.91385 23.2349 5.83597C23.0218 6.19857 22.6561 6.29234 22.3709 6.08187C22.1421 5.91203 22.0658 5.62341 22.2246 5.34209C22.7784 4.3637 23.3436 3.39052 23.9162 2.42255C24.0562 2.18499 24.2996 2.04432 24.564 2.17769C24.7468 2.27043 24.8753 2.4684 25.0164 2.60802V2.60697Z" fill="#B9B9B9"/>
<path d="M6.23248 10.0569C6.2283 10.5487 5.86679 10.8217 5.5199 10.7165C5.40602 10.6821 5.2984 10.6185 5.19392 10.5591C4.34238 10.0726 3.49293 9.58284 2.64243 9.09417C2.61422 9.0775 2.58497 9.06187 2.55676 9.04416C2.19211 8.82118 2.07718 8.51797 2.24435 8.22102C2.41153 7.92511 2.74587 7.85946 3.11052 8.05952C3.37173 8.20226 3.62667 8.35439 3.88474 8.50339C4.53463 8.87745 5.19183 9.23796 5.82813 9.63286C6.01516 9.74851 6.14262 9.96003 6.23248 10.0559V10.0569Z" fill="#B9B9B9"/>
<path d="M7.97202 15.9857C8.20293 12.1169 10.9508 8.89626 14.7248 8.11272C15.2618 8.00123 15.8198 7.97726 16.3693 7.93871C16.7486 7.91162 16.9942 8.12522 17.0161 8.44927C17.0391 8.78165 16.8427 9.02442 16.454 9.04734C15.6453 9.09631 14.8481 9.18488 14.0812 9.46204C11.1295 10.5259 9.26761 13.0297 9.10671 16.1534C9.10149 16.2524 9.10357 16.3524 9.08895 16.4504C9.04715 16.7484 8.80893 16.9641 8.53101 16.963C8.2395 16.963 7.9971 16.7307 7.97202 16.4149C7.96053 16.2722 7.96993 16.1284 7.96993 15.9857H7.97202Z" fill="#B9B9B9"/>
<path d="M16.6663 0.0146484C16.9661 0.208451 17.0424 0.493944 17.0382 0.832577C17.0288 1.80055 17.0361 2.76956 17.033 3.73752C17.033 3.86881 17.0299 4.0053 16.9933 4.1293C16.917 4.39291 16.7237 4.52732 16.45 4.52003C16.1898 4.51377 16.0091 4.37832 15.9391 4.1293C15.9035 4.00426 15.9004 3.86881 15.8994 3.73752C15.8962 2.76956 15.9035 1.80055 15.8941 0.832577C15.891 0.493944 15.9673 0.208451 16.2661 0.0146484H16.6642L16.6663 0.0146484Z" fill="#EABD50"/>
<path d="M5.71216 15.7803C5.93994 12.0262 7.79034 8.81387 11.512 6.88105C15.077 5.02951 18.69 5.19831 22.1338 7.28012C24.819 8.90243 26.5043 11.3208 27.0226 14.3997C27.7801 18.901 26.2327 22.5436 22.5538 25.2766C22.4326 25.3662 22.3292 25.5423 22.3072 25.6903C22.0857 27.2178 21.882 28.7484 21.6741 30.278C21.5926 30.874 21.2405 31.3324 20.8873 31.7836C18.3693 35.0063 13.189 34.4739 11.4284 30.7875C11.1819 30.2717 11.1787 29.634 11.0931 29.0474C10.9248 27.8919 10.7838 26.7322 10.6114 25.5767C10.5926 25.4506 10.462 25.3152 10.3481 25.2349C9.24265 24.4556 8.29917 23.5189 7.54585 22.3967C6.28473 20.5181 5.67664 18.4446 5.71216 15.7793V15.7803ZM19.1101 18.4404C19.4371 18.207 19.7296 17.9903 20.0295 17.785C20.3774 17.5464 20.7118 17.5808 20.9051 17.8653C21.089 18.1341 21.0117 18.4571 20.694 18.6946C20.3576 18.9458 20.0065 19.1771 19.6743 19.4344C19.3953 19.6501 19.1132 19.7856 18.7465 19.6011V24.3014C18.8697 24.3066 18.9774 24.3159 19.086 24.3159C19.9376 24.317 20.7901 24.3264 21.6417 24.3087C21.8235 24.3045 22.0325 24.2368 22.1798 24.1305C25.4762 21.7621 26.9035 17.3974 25.6559 13.5328C24.0761 8.63882 19.0369 5.84536 14.0698 7.10924C10.2394 8.0845 7.31703 11.3739 6.91581 15.2844C6.53654 18.9895 7.90422 21.9674 10.8872 24.2055C10.9823 24.2774 11.1275 24.3107 11.2508 24.3118C12.1473 24.3201 13.0427 24.317 13.9392 24.3149C14.0228 24.3149 14.1064 24.2982 14.1941 24.2889V19.698C13.9434 19.6605 13.6769 19.6897 13.4941 19.5803C13.0406 19.3084 12.6185 18.9822 12.1974 18.6613C11.9185 18.4477 11.8683 18.1226 12.0439 17.8715C12.2298 17.6048 12.5485 17.5548 12.864 17.7611C13.1232 17.9299 13.3771 18.108 13.6184 18.3008C13.7636 18.4164 13.8692 18.4279 14.0196 18.306C14.2599 18.1122 14.5201 17.9434 14.7719 17.7631C15.0164 17.5871 15.2619 17.585 15.5085 17.76C15.7697 17.9455 16.0226 18.1445 16.2963 18.3102C16.3799 18.3612 16.545 18.3633 16.6286 18.3133C16.8846 18.1622 17.1238 17.9809 17.36 17.7996C17.6452 17.5818 17.92 17.5787 18.2084 17.7944C18.4988 18.0122 18.7987 18.2185 19.1111 18.4415L19.1101 18.4404ZM20.8769 27.72H12.0512C12.1713 28.5796 12.2842 29.4173 12.4106 30.253C12.4461 30.4895 12.6164 30.5405 12.8484 30.5395C15.1042 30.5312 17.36 30.5343 19.6168 30.5343C20.4798 30.5343 20.4861 30.5353 20.6167 29.6705C20.7139 29.0297 20.7891 28.3858 20.8769 27.72ZM17.5689 24.2993V19.0416C17.3161 19.2229 17.0998 19.374 16.8877 19.5313C16.6014 19.7449 16.3224 19.7428 16.0362 19.5282C15.8209 19.3667 15.5994 19.2156 15.3549 19.0416V24.2993H17.5689ZM11.8976 26.5509H21.0367C21.0869 26.1779 21.1339 25.8236 21.182 25.461H11.7492C11.7994 25.8289 11.8464 26.1769 11.8976 26.5509ZM19.3807 31.6908H13.5515C15.008 33.1319 17.9378 33.1319 19.3807 31.6908Z" fill="#EABD50"/>
<path d="M10.8496 5.70578C10.7211 5.85165 10.6145 6.07775 10.4547 6.12672C10.2781 6.18091 10.0461 6.08921 9.84969 6.02461C9.77342 5.99961 9.72327 5.8777 9.67416 5.7933C9.15383 4.90035 8.63037 4.00845 8.12363 3.10716C8.03691 2.954 7.95437 2.73206 8.00347 2.58619C8.05989 2.41635 8.24274 2.21421 8.40782 2.17462C8.56873 2.13503 8.82158 2.23401 8.95218 2.358C9.12876 2.5268 9.2322 2.77478 9.35862 2.99255C9.78491 3.72504 10.2102 4.45648 10.6291 5.19314C10.7085 5.33276 10.7587 5.49009 10.8506 5.70578H10.8496Z" fill="#EABD50"/>
<path d="M2.32481 15.8397C2.84409 15.8397 3.36232 15.8366 3.88161 15.8408C4.29954 15.8449 4.56284 16.0669 4.56388 16.4013C4.56388 16.7358 4.29849 16.964 3.8837 16.965C2.82423 16.9692 1.76373 16.9703 0.703225 16.965C0.282157 16.963 0.0387108 16.7389 0.0481143 16.3878C0.056473 16.0502 0.29365 15.846 0.701135 15.8408C1.24236 15.8345 1.78358 15.8397 2.32376 15.8387L2.32481 15.8397Z" fill="#EABD50"/>
<path d="M30.6085 16.9672C30.0892 16.9672 29.5709 16.9713 29.0517 16.9661C28.6348 16.962 28.3694 16.7379 28.3694 16.4045C28.3694 16.069 28.6337 15.8429 29.0506 15.8419C30.1101 15.8377 31.1706 15.8377 32.23 15.8419C32.6511 15.844 32.8935 16.0659 32.8852 16.4191C32.8768 16.7546 32.6375 16.962 32.2321 16.9661C31.6909 16.9724 31.1497 16.9672 30.6095 16.9682L30.6085 16.9672Z" fill="#EABD50"/>
<path d="M2.66218 24.9245C2.51381 24.8005 2.29231 24.7004 2.23275 24.54C2.17111 24.3764 2.2641 24.1524 2.29962 23.9575C2.30589 23.9231 2.35709 23.8898 2.39366 23.869C3.41446 23.2813 4.43108 22.6864 5.46024 22.1143C5.72772 21.9664 5.98057 22.081 6.14774 22.33C6.31074 22.5707 6.24909 22.8656 6.00251 23.0625C5.90012 23.1438 5.78205 23.2063 5.66712 23.273C4.83752 23.7523 4.00793 24.2316 3.17415 24.7046C3.03414 24.7838 2.87637 24.8338 2.66114 24.9255L2.66218 24.9245Z" fill="#EABD50"/>
<path d="M30.7579 8.61385C30.6952 8.69408 30.6043 8.90247 30.4455 8.99729C29.4905 9.56932 28.5219 10.1215 27.5513 10.6675C27.2608 10.8311 26.9526 10.7425 26.7938 10.4894C26.6245 10.2205 26.6788 9.88919 26.9766 9.71206C27.9535 9.13274 28.9367 8.5628 29.9314 8.01473C30.3316 7.79488 30.7568 8.0637 30.7568 8.61281L30.7579 8.61385Z" fill="#EABD50"/>
<path d="M30.7557 24.2847C30.7453 24.7661 30.3106 24.9995 29.8843 24.7745C29.4643 24.5536 29.06 24.3045 28.6483 24.068C28.1322 23.7711 27.6129 23.4783 27.0988 23.1771C26.7112 22.95 26.5962 22.6385 26.776 22.3332C26.9504 22.0373 27.2691 21.9779 27.6453 22.1915C28.5564 22.7093 29.4633 23.2345 30.3723 23.7565C30.5938 23.8836 30.7672 24.042 30.7547 24.2837L30.7557 24.2847Z" fill="#EABD50"/>
<path d="M25.0164 2.60697C24.937 2.81641 24.9056 2.94665 24.8419 3.05814C24.3101 3.98651 23.7772 4.91385 23.2349 5.83597C23.0218 6.19857 22.6561 6.29234 22.3709 6.08187C22.1421 5.91203 22.0658 5.62341 22.2246 5.34209C22.7784 4.3637 23.3436 3.39052 23.9162 2.42255C24.0562 2.18499 24.2996 2.04432 24.564 2.17769C24.7468 2.27043 24.8753 2.4684 25.0164 2.60802V2.60697Z" fill="#EABD50"/>
<path d="M6.23248 10.0569C6.2283 10.5487 5.86679 10.8217 5.5199 10.7165C5.40602 10.6821 5.2984 10.6185 5.19392 10.5591C4.34238 10.0726 3.49293 9.58284 2.64243 9.09417C2.61422 9.0775 2.58497 9.06187 2.55676 9.04416C2.19211 8.82118 2.07718 8.51797 2.24435 8.22102C2.41153 7.92511 2.74587 7.85946 3.11052 8.05952C3.37173 8.20226 3.62667 8.35439 3.88474 8.50339C4.53463 8.87745 5.19183 9.23796 5.82813 9.63286C6.01516 9.74851 6.14262 9.96003 6.23248 10.0559V10.0569Z" fill="#EABD50"/>
<path d="M7.97202 15.9857C8.20293 12.1169 10.9508 8.89626 14.7248 8.11272C15.2618 8.00123 15.8198 7.97726 16.3693 7.93871C16.7486 7.91162 16.9942 8.12522 17.0161 8.44927C17.0391 8.78165 16.8427 9.02442 16.454 9.04734C15.6453 9.09631 14.8481 9.18488 14.0812 9.46204C11.1295 10.5259 9.26761 13.0297 9.10671 16.1534C9.10149 16.2524 9.10357 16.3524 9.08895 16.4504C9.04715 16.7484 8.80893 16.9641 8.53101 16.963C8.2395 16.963 7.9971 16.7307 7.97202 16.4149C7.96053 16.2722 7.96993 16.1284 7.96993 15.9857H7.97202Z" fill="#EABD50"/>
</g>
<defs>
<clipPath id="clip0_115_33">
<rect width="33" height="33.9706" fill="white" transform="translate(0 0.0146484)"/>
</clipPath>
</defs>
</svg>
