<svg width="9" height="10" viewBox="0 0 9 10" fill="none" xmlns="http://www.w3.org/2000/svg">
<path d="M0 1.1447C0 0.788739 0.295882 0.5 0.660889 0.5H8.33911C8.70411 0.5 9 0.78874 9 1.1447V8.8553C9 9.21138 8.70411 9.5 8.33911 9.5L0.660889 9.5C0.295882 9.5 0 9.21138 0 8.8553V1.1447ZM2.78065 8.03393V3.96993H1.42985V8.03393H2.78065ZM2.10524 3.41506C2.5763 3.41506 2.86949 3.10299 2.86949 2.71299C2.86071 2.31421 2.5763 2.0108 2.11418 2.0108C1.65211 2.0108 1.35 2.31421 1.35 2.71299C1.35 3.10299 1.64313 3.41506 2.09644 3.41506H2.10524ZM4.86641 8.03393V5.76442C4.86641 5.64296 4.87519 5.52162 4.91086 5.43479C5.00851 5.19211 5.23077 4.94077 5.60393 4.94077C6.09272 4.94077 6.28825 5.31345 6.28825 5.85978V8.03393H7.63893V5.70369C7.63893 4.45541 6.97252 3.87456 6.0838 3.87456C5.36725 3.87456 5.04596 4.26839 4.86645 4.54531V4.55931H4.85743C4.86039 4.55468 4.8634 4.55001 4.86645 4.54531V3.96993H3.51566C3.53339 4.35127 3.51566 8.03393 3.51566 8.03393H4.86641Z" fill="black"/>
</svg>
