<svg width="105" height="90" viewBox="0 0 105 90" fill="none" xmlns="http://www.w3.org/2000/svg">
<g clip-path="url(#clip0_277_61)">
<path d="M0 17.4649C0.481158 15.4353 0.729974 13.3165 1.48335 11.3907C5.3829 1.41497 17.7032 -3.0224 27.0749 2.21927C29.5882 3.62464 31.7894 5.57365 34.1553 7.24313C34.5844 7.54582 35.0959 7.78419 35.6057 7.91795C37.8555 8.51046 39.3952 10.3257 39.5529 12.7901C39.592 13.4014 39.8148 13.6887 40.3306 13.927C41.3163 14.3824 42.2786 14.8874 43.2418 15.3676C47.0876 10.3643 54.6006 11.0597 57.25 17.0328C61.5085 14.0497 67.1593 15.3401 69.5131 20.5278C71.6388 19.071 73.9501 18.4827 76.4868 19.2081C79.0166 19.9318 80.7106 21.5919 81.7414 24.0194C83.6227 22.77 85.5829 22.1115 87.8014 22.4768C91.7261 23.1242 94.4553 26.2076 94.5064 30.1596C94.5498 33.4763 94.5385 36.7947 94.5004 40.1113C94.4917 40.8256 94.7223 41.1866 95.376 41.4919C97.2616 42.3716 99.1143 43.3217 100.968 44.2675C104.602 46.1213 105.942 49.8375 104.315 53.5495C103.622 55.1306 102.902 56.7015 102.179 58.2698C100.412 62.1018 96.7172 63.5698 92.724 62.0358C92.2177 61.8411 91.7096 61.6533 91.0932 61.421C91.0265 62.2561 91.0039 63.0141 90.9008 63.761C90.3849 67.4961 88.3502 70.1173 84.8451 71.5656C84.1307 71.8606 83.9756 72.2276 83.9799 72.9135C84.0059 77.1442 83.94 81.3767 84.0146 85.6065C84.0527 87.7605 83.2959 89.2705 81.184 90.0002H51.5871C49.5012 89.1556 48.8224 87.6061 48.8735 85.4196C48.9854 80.6838 48.9195 75.9429 48.8874 71.2046C48.8848 70.793 48.7236 70.2168 48.4253 69.9982C44.003 66.7647 40.6713 62.5665 37.6621 58.1026C36.0323 55.6854 34.5316 53.1782 33.0621 50.6607C30.8878 46.9367 31.0464 43.2531 33.4799 39.6766C33.6083 39.488 33.7192 39.2873 33.8727 39.0344C32.333 38.4264 30.8539 37.8125 29.3463 37.2757C29.0776 37.1797 28.6224 37.3143 28.3693 37.4978C26.2548 39.0395 24.0163 38.9581 21.7692 37.6762C20.5823 36.9996 19.0643 36.8564 17.6754 36.5692C14.5995 35.9338 11.4793 35.4922 8.76402 33.719C3.7461 30.4417 0.839209 25.9023 0.181193 19.9739C0.148249 19.6763 0.0615536 19.3848 0 19.0907C0 18.5488 0 18.0068 0 17.4649ZM70.8889 54.5896C71.0684 56.2685 71.3735 57.9328 71.39 59.6014C71.4074 61.3841 70.6245 62.2407 69.4541 62.1404C68.2889 62.0409 67.819 61.2066 67.8659 59.4462C67.9664 55.6443 66.3504 52.7417 62.9754 50.9377C58.5461 48.5693 53.9235 46.6263 49.1059 45.1489C46.1366 44.2383 45.2852 41.9069 46.7721 39.1801C47.5627 37.731 48.2433 36.203 48.7851 34.6467C49.3608 32.9918 49.4275 31.2589 48.8016 29.5654C48.5207 28.8057 48.1262 28.1472 47.2099 28.0254C46.3013 27.9054 45.7464 28.3967 45.2653 29.0792C42.309 33.2705 39.3301 37.4464 36.3782 41.6411C34.757 43.9451 34.6313 46.3665 36.0192 48.8077C37.1246 50.7533 38.2647 52.6834 39.4845 54.5604C42.2682 58.8417 45.2766 62.9558 49.255 66.2605C51.3513 68.0011 53.6244 69.3911 56.4862 69.5557C57.6211 69.6209 58.2696 70.4569 58.169 71.461C58.0728 72.4222 57.3237 73.0687 56.2192 72.9547C54.9708 72.8261 53.738 72.5508 52.4679 72.3339V86.4563H80.4809C80.4809 85.9812 80.4809 85.5799 80.4809 85.1778C80.4809 80.743 80.4748 76.3074 80.4852 71.8726C80.4895 69.9364 81.1155 69.1381 82.9803 68.5671C84.8928 67.9823 86.2712 66.7895 87.0168 64.946C87.8318 62.9301 87.4278 60.837 87.4876 58.7337C83.5464 58.8666 80.8641 57.1817 79.2827 53.7861C75.8947 55.7309 74.2449 55.8741 70.8898 54.5922L70.8889 54.5896ZM10.8378 30.8207C14.8847 21.9272 18.9039 13.0953 22.9265 4.25574C16.9281 2.04091 8.4181 4.57214 4.93989 11.9575C1.69576 18.8472 4.36857 27.5024 10.8378 30.8216V30.8207ZM78.7192 37.0708C78.7192 33.7198 78.7262 30.3689 78.7175 27.0188C78.7106 24.3238 76.8726 22.3722 74.3533 22.3602C71.8469 22.3482 69.9474 24.2998 69.9396 26.981C69.9197 33.7164 69.9197 40.4518 69.9517 47.1871C69.9552 47.9117 70.1035 48.686 70.3922 49.3488C71.1889 51.1769 73.2713 52.1612 75.2341 51.7531C77.2359 51.3364 78.6915 49.6137 78.7088 47.5284C78.7383 44.0428 78.7166 40.5564 78.7192 37.0699V37.0708ZM82.22 40.5135C82.22 43.8979 82.2122 47.2823 82.2226 50.6676C82.2312 53.3686 84.0605 55.2867 86.605 55.2893C89.1504 55.2918 91.0013 53.3857 91.0083 50.6796C91.0247 43.9442 91.0273 37.2088 90.9944 30.4735C90.9909 29.7498 90.8349 28.9763 90.5436 28.3144C89.7503 26.512 87.7095 25.5319 85.8031 25.9221C83.6843 26.3559 82.2521 28.0048 82.2321 30.1571C82.2 33.6092 82.2235 37.0614 82.2208 40.5135H82.22ZM66.4224 33.7121C66.4224 30.2291 66.4475 26.7461 66.4137 23.2639C66.3903 20.7996 64.4674 18.8986 62.0894 18.8986C59.7096 18.8986 57.7771 20.8107 57.7659 23.2725C57.7338 30.1022 57.7416 36.9327 57.7165 43.7624C57.7147 44.3318 57.8578 44.6628 58.4308 44.9166C60.2375 45.7166 61.9975 46.6203 63.8059 47.4143C64.1076 47.5473 64.6737 47.4658 64.9321 47.2574C66.0045 46.3957 66.4354 45.2192 66.4293 43.8542C66.4128 40.4732 66.4241 37.0914 66.4224 33.7104V33.7121ZM26.1022 5.63539C22.0414 14.5847 18.0456 23.3908 14.003 32.3016C15.9961 32.6763 17.8592 33.0261 19.398 33.3151C23.119 25.0946 26.7541 17.0619 30.4569 8.8826C29.2007 7.94539 27.706 6.83155 26.1031 5.63625L26.1022 5.63539ZM53.6947 42.9341C53.8663 41.876 54.1455 40.9345 54.1507 39.9904C54.1897 33.4231 54.1724 26.855 54.168 20.2868C54.168 19.9156 54.1455 19.5417 54.0952 19.1738C53.8091 17.0739 52.0024 15.4748 49.8879 15.4362C47.7274 15.3967 45.6962 16.9539 45.4942 19.0744C45.319 20.9128 45.4578 22.7812 45.4578 24.6916C47.939 24.196 50.0595 24.7362 51.3548 26.933C51.9902 28.0108 52.4081 29.2979 52.5884 30.5386C53.054 33.7421 52.0509 36.6892 50.597 39.5085C50.2598 40.1628 49.9018 40.8067 49.5047 41.5467C50.8511 41.9926 52.1038 42.4076 53.6947 42.935V42.9341ZM30.5436 33.9925C32.2636 34.6605 33.8718 35.3181 35.5121 35.8832C35.747 35.9647 36.2568 35.6808 36.4423 35.4253C38.1589 33.0613 39.8451 30.675 41.5045 28.2707C41.7359 27.9345 41.8798 27.4706 41.8868 27.0625C41.9319 24.3546 41.9379 21.6451 41.9258 18.9363C41.9249 18.6902 41.7723 18.3232 41.5773 18.2195C40.5647 17.6784 39.5148 17.2043 38.3973 16.6675C35.773 22.4554 33.1904 28.1523 30.5436 33.9916V33.9925ZM24.9656 35.2984C25.9617 35.2555 26.4498 34.6339 26.8261 33.8021C29.7685 27.2974 32.7326 20.803 35.6803 14.3009C35.8459 13.9365 35.9924 13.5395 36.0314 13.1468C36.1146 12.3107 35.721 11.6728 34.9217 11.407C34.1432 11.148 33.421 11.3435 32.9277 12.0441C32.7344 12.3176 32.6043 12.6374 32.4639 12.9444C30.5947 17.0379 28.7186 21.1289 26.8651 25.2292C25.6947 27.8179 24.5269 30.4083 23.4207 33.0244C22.956 34.1237 23.7892 35.265 24.9665 35.2984H24.9656ZM90.9337 57.601C92.1474 58.0812 93.2355 58.539 94.3434 58.9446C96.2256 59.634 98.028 58.9258 98.8845 57.1311C99.6856 55.4539 100.447 53.757 101.182 52.0498C102.002 50.1462 101.364 48.3747 99.5226 47.4178C98.1034 46.6795 96.6591 45.9884 95.2208 45.287C95.0292 45.1935 94.8081 45.1601 94.5177 45.0752C94.5177 47.0388 94.529 48.8952 94.5151 50.7516C94.4951 53.2528 93.564 55.351 91.629 56.9905C91.4296 57.1594 91.2363 57.3343 90.9337 57.601Z" fill="white"/>
</g>
<defs>
<clipPath id="clip0_277_61">
<rect width="105" height="90" fill="white"/>
</clipPath>
</defs>
</svg>
