<svg width="32" height="32" viewBox="0 0 32 32" fill="none" xmlns="http://www.w3.org/2000/svg">
<path d="M29.9999 19.7313C29.9924 19.7339 29.9782 19.7359 29.9776 19.7393C29.9695 19.8088 29.9695 19.879 29.9553 19.9472C29.9209 20.1164 29.8263 20.2487 29.6852 20.3477C29.3766 20.5636 29.0681 20.7789 28.7325 20.9534C28.0715 21.297 27.3821 21.5671 26.6543 21.7383C26.2464 21.8345 25.8332 21.8961 25.4159 21.9388C24.8414 21.9983 24.2688 21.9776 23.6969 21.9194C23.4126 21.89 23.1311 21.8339 22.8367 21.7877C22.8293 21.8305 22.8191 21.8827 22.8117 21.9342C22.7861 22.1107 22.7003 22.2517 22.5572 22.358C22.1709 22.6462 21.7618 22.8982 21.3398 23.1309C20.6031 23.5374 19.826 23.8449 19.0164 24.0755C18.4952 24.224 17.9638 24.3256 17.427 24.3991C16.7133 24.4967 15.9969 24.5134 15.2792 24.4753C14.712 24.4453 14.1537 24.353 13.6 24.23C12.4231 23.9672 11.3151 23.5347 10.2841 22.9143C10.0059 22.7471 9.73922 22.5626 9.46846 22.3828C9.26793 22.2497 9.17678 22.0552 9.1626 21.8218C9.16192 21.8111 9.16057 21.7998 9.15922 21.7797C9.05389 21.7984 8.95194 21.8165 8.84998 21.8345C8.11132 21.9669 7.36793 22.0157 6.61913 21.9395C6.3477 21.9121 6.07425 21.89 5.80687 21.8392C4.56518 21.6039 3.4214 21.1352 2.3924 20.4038C2.2945 20.3343 2.20469 20.2461 2.12975 20.1525C2.03725 20.0375 2.02712 19.8904 2.01564 19.7487C1.97243 19.2118 2.01969 18.6803 2.14595 18.1588C2.35526 17.2964 2.76443 16.5336 3.35658 15.8657C3.89404 15.2593 4.5483 14.8201 5.2944 14.5052C5.35922 14.4778 5.42471 14.4524 5.4902 14.4256C5.49155 14.4256 5.49155 14.4223 5.49493 14.4129C4.6219 13.7357 4.17087 12.8492 4.22083 11.744C4.25527 10.9719 4.56383 10.306 5.11547 9.75441C6.22077 8.64929 7.92969 8.50756 9.20379 9.44822C10.0336 10.0606 10.459 10.9137 10.4522 11.9386C10.4461 12.9588 9.99377 13.7818 9.18353 14.4076C9.38812 14.5038 9.58797 14.5887 9.77973 14.6897C10.4097 15.02 10.9694 15.4391 11.4218 15.9894C11.5265 16.1164 11.5292 16.1164 11.6561 16.0188C12.0241 15.7333 12.4076 15.4699 12.8222 15.256C13.1956 15.0627 13.5851 14.9063 13.9882 14.7826C14.0058 14.7773 14.022 14.7706 14.0416 14.7639C12.5723 13.8005 11.8695 12.4728 12.1395 10.7272C12.3023 9.67486 12.8634 8.83114 13.7479 8.21607C15.446 7.03607 17.7606 7.35163 19.0657 8.97555C19.5438 9.57056 19.8246 10.2498 19.9036 11.0039C19.9833 11.7621 19.8341 12.4848 19.4803 13.1614C19.1278 13.8353 18.6235 14.3708 17.9361 14.7545C17.984 14.7713 18.0151 14.7833 18.0462 14.7926C18.9219 15.0648 19.7058 15.5027 20.4114 16.0796C20.4512 16.1124 20.4715 16.109 20.5032 16.0703C20.9502 15.524 21.487 15.0828 22.1115 14.7492C22.3391 14.6275 22.5781 14.5272 22.8137 14.4163C21.8212 13.6066 21.36 12.5797 21.6099 11.2968C21.7544 10.5547 22.1446 9.94696 22.7496 9.48365C23.9454 8.5684 25.5976 8.61185 26.7326 9.61602C27.4706 10.2685 27.823 11.0989 27.7758 12.0703C27.7285 13.039 27.2808 13.8192 26.4983 14.4136C28.4631 15.1202 29.8932 17.0383 29.9749 19.0513C29.9837 18.9959 29.9911 18.9517 29.9985 18.9076V19.7326L29.9999 19.7313ZM15.895 23.1971C16.0557 23.1924 16.3204 23.1971 16.5837 23.1757C16.9625 23.1449 17.3413 23.1081 17.7167 23.0506C18.2481 22.9698 18.7646 22.822 19.271 22.6435C19.7902 22.4603 20.2912 22.2343 20.7699 21.9642C21.011 21.8285 21.2466 21.6835 21.4822 21.5384C21.5099 21.5217 21.539 21.4795 21.5383 21.4495C21.5322 21.1974 21.5302 20.9447 21.5072 20.694C21.466 20.2394 21.3641 19.7968 21.1926 19.3716C21.0076 18.9123 20.7888 18.4717 20.4944 18.0692C20.119 17.5558 19.6572 17.1306 19.1359 16.7682C18.2568 16.1572 17.2731 15.8496 16.2029 15.8115C15.5547 15.7881 14.918 15.8657 14.2981 16.0649C13.4967 16.3223 12.7904 16.7361 12.1787 17.3084C11.8195 17.6447 11.5157 18.0238 11.2577 18.4423C10.9708 18.9076 10.7561 19.4003 10.6231 19.9278C10.4975 20.4286 10.4394 20.9373 10.4563 21.4535C10.457 21.4802 10.4819 21.5156 10.5062 21.531C10.7628 21.6895 11.0167 21.8533 11.2807 21.9997C11.8776 22.3313 12.5082 22.5873 13.1625 22.7859C13.5872 22.9149 14.0213 23.0025 14.4595 23.0734C14.9011 23.1449 15.3454 23.1803 15.8957 23.1964L15.895 23.1971ZM24.4862 20.6753C25.1209 20.6766 25.5564 20.6372 25.9872 20.5609C26.5948 20.4533 27.1802 20.2721 27.7339 20.0014C28.0391 19.8523 28.3308 19.6758 28.6285 19.5106C28.6623 19.4919 28.6886 19.4705 28.6886 19.4224C28.6886 19.0968 28.6623 18.7739 28.5846 18.4577C28.3821 17.6273 27.9601 16.926 27.3072 16.3651C26.6684 15.8155 25.9277 15.496 25.0837 15.4117C24.6496 15.3683 24.2181 15.3863 23.7934 15.4806C22.8279 15.6959 22.044 16.1959 21.4431 16.9741C21.3648 17.0758 21.358 17.0443 21.4417 17.1533C21.9832 17.856 22.3776 18.6322 22.6051 19.4866C22.6827 19.7794 22.7307 20.0803 22.7881 20.3784C22.7975 20.4272 22.8191 20.4453 22.8644 20.4567C23.4619 20.6011 24.0676 20.6793 24.4862 20.6753ZM7.34227 20.6913C7.34227 20.6846 7.34227 20.6786 7.34227 20.6719C7.94725 20.682 8.54074 20.5964 9.12749 20.458C9.17678 20.4466 9.19771 20.4266 9.20581 20.3751C9.23215 20.2019 9.26253 20.0288 9.29831 19.857C9.4293 19.2345 9.64604 18.6422 9.95123 18.0819C10.1315 17.7503 10.3334 17.4314 10.569 17.1353C10.6095 17.0838 10.6163 17.0544 10.5744 16.9996C9.85603 16.0716 8.91548 15.5361 7.73591 15.4117C7.38886 15.375 7.04316 15.3816 6.70083 15.4358C5.8933 15.5642 5.18231 15.8998 4.58544 16.456C3.76507 17.2222 3.34983 18.1695 3.30527 19.2827C3.29919 19.4291 3.34915 19.506 3.47136 19.5802C4.3687 20.1284 5.33153 20.4934 6.38281 20.6124C6.70151 20.6485 7.02223 20.6652 7.34227 20.6906V20.6913ZM13.3785 11.4124C13.3779 12.8044 14.5547 13.9723 15.9652 13.9723C17.4648 13.9723 18.6025 12.8458 18.616 11.4084C18.6295 9.97838 17.5134 8.86457 16.1063 8.80306C14.629 8.73888 13.3799 9.89347 13.3785 11.4124ZM7.34835 13.7096C8.20517 13.727 9.1464 13.0223 9.14572 11.9205C9.14504 10.8923 8.3105 10.1241 7.35577 10.1221C6.31664 10.1201 5.51383 10.917 5.51856 11.9346C5.52329 12.9167 6.34635 13.7149 7.34835 13.7089V13.7096ZM24.6631 13.7096C25.578 13.7216 26.4895 12.9842 26.478 11.8671C26.4686 10.921 25.6523 10.1281 24.6698 10.1201C23.6017 10.1114 22.8299 11.038 22.8461 11.9406C22.863 12.9067 23.6685 13.7076 24.6631 13.7096Z" fill="black"/>
</svg>
