<svg width="9" height="10" viewBox="0 0 9 10" fill="none" xmlns="http://www.w3.org/2000/svg">
<path d="M4.49998 0.5C2.01472 0.5 0 2.51472 0 4.99998C0 6.9064 1.18612 8.53613 2.86007 9.19181C2.82075 8.83577 2.78519 8.28821 2.87568 7.89952C2.95746 7.54832 3.40335 5.66274 3.40335 5.66274C3.40335 5.66274 3.26875 5.39317 3.26875 4.99463C3.26875 4.36891 3.63143 3.90177 4.08301 3.90177C4.46693 3.90177 4.65236 4.19001 4.65236 4.53564C4.65236 4.92174 4.40655 5.499 4.27969 6.03394C4.17367 6.48183 4.5043 6.84709 4.94606 6.84709C5.74586 6.84709 6.36066 6.00377 6.36066 4.78644C6.36066 3.70899 5.58647 2.95568 4.48098 2.95568C3.20058 2.95568 2.44904 3.91604 2.44904 4.90854C2.44904 5.2953 2.59802 5.71003 2.78394 5.93549C2.82071 5.98005 2.8261 6.01907 2.81514 6.06456C2.78099 6.20668 2.70507 6.51233 2.69017 6.57489C2.67055 6.65726 2.62495 6.67475 2.53967 6.63506C1.97765 6.37345 1.62626 5.55175 1.62626 4.89175C1.62626 3.47225 2.65763 2.16861 4.59958 2.16861C6.16062 2.16861 7.37374 3.28099 7.37374 4.76759C7.37374 6.31845 6.39589 7.56658 5.03865 7.56658C4.58265 7.56658 4.15398 7.32969 4.00724 7.04986C4.00724 7.04986 3.7816 7.90904 3.72689 8.1196C3.6253 8.51046 3.35105 9.0004 3.1676 9.2993C3.58864 9.42966 4.03608 9.49996 4.49998 9.49996C6.98528 9.49996 9 7.48524 9 4.99998C9 2.51472 6.98528 0.5 4.49998 0.5Z" fill="white"/>
</svg>
