<svg width="18" height="20" viewBox="0 0 18 20" fill="none" xmlns="http://www.w3.org/2000/svg">
<path d="M9.00448 0.155235H12.3736C12.356 1.45682 12.8254 2.56554 13.7366 3.47954C14.6443 4.39006 15.7528 4.85774 17.0483 4.89964V8.23339C15.3579 8.17486 13.7869 7.7538 12.3847 6.72703V6.87553C12.3847 9.12214 12.3989 11.3691 12.3802 13.6155C12.3656 15.376 11.7299 16.893 10.4566 18.1166C9.55646 18.9817 8.48986 19.5516 7.24919 19.7556C5.67536 20.0142 4.20027 19.7281 2.85491 18.8687C1.70928 18.1369 0.882035 17.1249 0.406213 15.8488C0.0681283 14.9428 -0.0677624 14.0037 0.0320002 13.0298C0.210793 11.2858 0.983645 9.86505 2.33106 8.76372C3.28886 7.98076 4.40288 7.55148 5.63492 7.42989C6.06189 7.38779 6.48763 7.39436 6.91357 7.43749C6.95031 7.44119 6.98664 7.4492 7.02544 7.45577V10.8787C6.83002 10.8435 6.64035 10.7975 6.44801 10.777C5.16608 10.6408 3.96913 11.3741 3.4966 12.5791C2.89289 14.119 3.707 15.8509 5.27549 16.3637C6.92075 16.9019 8.6941 15.8213 8.95562 14.1151C8.99175 13.8799 9.0014 13.6388 9.0014 13.4003C9.00427 9.0369 9.00386 4.67329 9.00407 0.309897C9.00407 0.262451 9.00407 0.215004 9.00407 0.155029L9.00448 0.155235Z" fill="white"/>
</svg>
