<svg width="9" height="10" viewBox="0 0 9 10" fill="none" xmlns="http://www.w3.org/2000/svg">
<path d="M2.82713 8.9375C6.22329 8.9375 8.08163 6.12334 8.08163 3.68704C8.08163 3.60787 8.08163 3.5287 8.07803 3.44953C8.43818 3.19042 8.7515 2.86294 9 2.49228C8.66867 2.63983 8.31213 2.73699 7.93758 2.78377C8.31933 2.55706 8.61104 2.19359 8.7515 1.76175C8.39496 1.97407 7.9988 2.12522 7.57743 2.20798C7.2389 1.84812 6.7599 1.625 6.23049 1.625C5.21128 1.625 4.38295 2.45269 4.38295 3.47112C4.38295 3.61506 4.40096 3.75541 4.42977 3.89216C2.89556 3.81659 1.53421 3.07886 0.623049 1.96328C0.464586 2.23677 0.37455 2.55346 0.37455 2.89173C0.37455 3.5323 0.702281 4.09729 1.19568 4.42836C0.893157 4.41757 0.608643 4.3348 0.360144 4.19805C0.360144 4.20525 0.360144 4.21244 0.360144 4.22324C0.360144 5.11571 0.997599 5.86423 1.84034 6.03337C1.68547 6.07656 1.52341 6.09815 1.35414 6.09815C1.23529 6.09815 1.12005 6.08735 1.0084 6.06576C1.2425 6.79989 1.92677 7.33249 2.73349 7.34689C2.09964 7.8435 1.30372 8.13859 0.439376 8.13859C0.291717 8.13859 0.144058 8.1314 0 8.1134C0.813926 8.63161 1.78631 8.9375 2.82713 8.9375Z" fill="white"/>
</svg>
