<svg width="45" height="45" viewBox="0 0 45 45" fill="none" xmlns="http://www.w3.org/2000/svg">
<g clip-path="url(#clip0_141_3671)">
<path d="M19.4482 27.0829L27.087 22.5L19.4482 17.917V27.0829Z" fill="white"/>
<path d="M22.5 0C10.0744 0 0 10.073 0 22.5C0 34.927 10.0744 45 22.5 45C34.9256 45 45 34.9256 45 22.5C45 10.0744 34.9256 0 22.5 0ZM34.7175 23.4858C34.7175 25.5952 34.4728 27.7045 34.4728 27.7045C34.4728 27.7045 34.2337 29.5017 33.5025 30.2906C32.573 31.3284 31.5323 31.3341 31.0542 31.3959C27.6342 31.6575 22.5 31.6659 22.5 31.6659C22.5 31.6659 16.1466 31.6041 14.1919 31.4044C13.6477 31.2961 12.4284 31.327 11.4975 30.2906C10.7648 29.5003 10.5272 27.7045 10.5272 27.7045C10.5272 27.7045 10.2825 25.5966 10.2825 23.4858V21.5086C10.2825 19.3992 10.5272 17.2913 10.5272 17.2913C10.5272 17.2913 10.7662 15.4941 11.4975 14.7023C12.427 13.6631 13.4677 13.6575 13.9458 13.5984C17.3644 13.3341 22.4944 13.3341 22.4944 13.3341H22.5056C22.5056 13.3341 27.6356 13.3341 31.0542 13.5984C31.5309 13.6575 32.573 13.6631 33.5025 14.7009C34.2352 15.4927 34.4728 17.2898 34.4728 17.2898C34.4728 17.2898 34.7175 19.3992 34.7175 21.5086V23.4858Z" fill="white"/>
</g>
<defs>
<clipPath id="clip0_141_3671">
<rect width="45" height="45" fill="white"/>
</clipPath>
</defs>
</svg>
