<svg width="22" height="16" viewBox="0 0 22 16" fill="none" xmlns="http://www.w3.org/2000/svg">
<path fill-rule="evenodd" clip-rule="evenodd" d="M21.5402 2.40454C21.2872 1.45816 20.5418 0.712598 19.5953 0.459612C17.8796 0 10.9999 0 10.9999 0C10.9999 0 4.12039 0 2.40473 0.459612C1.45816 0.712598 0.712779 1.45816 0.459793 2.40454C0 4.12039 0 7.69987 0 7.69987C0 7.69987 0 11.2795 0.459793 12.9952C0.712779 13.9416 1.45816 14.6873 2.40473 14.9401C4.12039 15.3999 10.9999 15.3999 10.9999 15.3999C10.9999 15.3999 17.8796 15.3999 19.5953 14.9401C20.5418 14.6873 21.2872 13.9416 21.5402 12.9952C22 11.2795 22 7.69987 22 7.69987C22 7.69987 22 4.12039 21.5402 2.40454Z" fill="white"/>
<path fill-rule="evenodd" clip-rule="evenodd" d="M8.7998 10.9997L14.5153 7.69988L8.7998 4.39966V10.9997Z" fill="#FF0000"/>
</svg>
