<svg width="24" height="24" viewBox="0 0 24 24" fill="none" xmlns="http://www.w3.org/2000/svg">
<g clip-path="url(#clip0_141_3708)">
<path d="M10.3721 14.4442L14.4461 11.9999L10.3721 9.55566V14.4442Z" fill="#646464"/>
<path d="M12 0C5.373 0 0 5.37225 0 12C0 18.6277 5.373 24 12 24C18.627 24 24 18.627 24 12C24 5.373 18.627 0 12 0ZM18.516 12.5258C18.516 13.6508 18.3855 14.7758 18.3855 14.7758C18.3855 14.7758 18.258 15.7343 17.868 16.155C17.3722 16.7085 16.8173 16.7115 16.5623 16.7445C14.7383 16.884 12 16.8885 12 16.8885C12 16.8885 8.6115 16.8555 7.569 16.749C7.27875 16.6913 6.6285 16.7078 6.132 16.155C5.74125 15.7335 5.6145 14.7758 5.6145 14.7758C5.6145 14.7758 5.484 13.6515 5.484 12.5258V11.4713C5.484 10.3463 5.6145 9.222 5.6145 9.222C5.6145 9.222 5.742 8.2635 6.132 7.84125C6.62775 7.287 7.18275 7.284 7.43775 7.2525C9.261 7.1115 11.997 7.1115 11.997 7.1115H12.003C12.003 7.1115 14.739 7.1115 16.5623 7.2525C16.8165 7.284 17.3722 7.287 17.868 7.8405C18.2587 8.26275 18.3855 9.22125 18.3855 9.22125C18.3855 9.22125 18.516 10.3463 18.516 11.4713V12.5258Z" fill="#646464"/>
</g>
<defs>
<clipPath id="clip0_141_3708">
<rect width="24" height="24" fill="white"/>
</clipPath>
</defs>
</svg>
