<svg width="30" height="11" viewBox="0 0 30 11" fill="none" xmlns="http://www.w3.org/2000/svg">
<path d="M24.9848 10.6071C24.8665 10.588 24.7484 10.5665 24.6295 10.5506C22.9426 10.3251 21.5792 9.07155 21.2375 7.40515C20.7765 5.15572 22.2617 3.07406 24.3938 2.66736C26.541 2.25773 28.5935 3.6023 29.0714 5.73018C29.5664 7.93534 28.0907 10.1407 25.8616 10.5247C25.7298 10.5474 25.5957 10.5555 25.463 10.5739C25.425 10.579 25.3886 10.5959 25.3517 10.6071H24.9848ZM27.54 6.60007C27.5405 5.28167 26.483 4.22176 25.1749 4.21026C23.9384 4.1995 22.7807 5.18409 22.777 6.58075C22.7736 7.87812 23.7755 8.96419 25.1553 8.96884C26.5412 8.97348 27.539 7.85782 27.54 6.60007Z" fill="white"/>
<path d="M5.91234 2.10936C5.81818 2.10936 5.76169 2.10936 5.7052 2.10936C3.94048 2.10936 2.17577 2.10936 0.41105 2.10936C0.299532 2.10936 0.243692 2.05344 0.243529 1.9416C0.243529 1.47694 0.246708 1.01228 0.241328 0.547871C0.239861 0.434397 0.267007 0.392822 0.389529 0.392822C3.01019 0.396246 5.63061 0.396001 8.25127 0.392822C8.36768 0.392822 8.39483 0.430973 8.39409 0.540534C8.39116 0.990762 8.3398 1.42998 8.07886 1.81174C7.94387 2.00934 7.77854 2.1864 7.62863 2.37397C6.44938 3.85133 5.27038 5.32894 4.09162 6.80679C3.56827 7.46294 3.04541 8.11957 2.52279 8.7762C2.49834 8.80702 2.47706 8.84028 2.43866 8.89481C2.51594 8.8997 2.56975 8.90631 2.62355 8.90631C4.49024 8.9068 6.3567 8.9068 8.22339 8.9068C8.3914 8.9068 8.39409 8.9068 8.39091 9.07334C8.38553 9.37023 8.39825 9.66932 8.36352 9.96303C8.32586 10.2805 8.04022 10.5006 7.71838 10.5006C5.19163 10.5015 2.66463 10.5006 0.137881 10.5033C0.0288089 10.5033 -0.00640713 10.4685 0.000929552 10.3624C0.0168257 10.1354 0.01169 9.9063 0.039814 9.68131C0.0855459 9.31667 0.315429 9.04619 0.537241 8.77302C1.413 7.69453 2.28655 6.61433 3.16035 5.53412C4.04686 4.43827 4.93265 3.34168 5.81843 2.24509C5.84509 2.21207 5.8671 2.1749 5.91185 2.10936H5.91234Z" fill="white"/>
<path d="M15.1899 3.41184C15.1899 3.24725 15.1946 3.11886 15.1885 2.99096C15.1838 2.89558 15.2164 2.86281 15.3137 2.86355C15.77 2.8677 16.2266 2.8677 16.683 2.86355C16.782 2.86257 16.8067 2.89876 16.8067 2.99218C16.8047 5.4534 16.8047 7.91485 16.8067 10.3761C16.8067 10.4722 16.7766 10.5047 16.6805 10.503C16.4117 10.4981 16.1427 10.5027 15.8737 10.5008C15.548 10.4986 15.2873 10.289 15.2129 9.97328C15.2029 9.93024 15.1914 9.88744 15.176 9.82655C13.9765 10.6262 12.7018 10.8124 11.3538 10.2976C10.5659 9.99676 9.94544 9.47439 9.48372 8.76713C8.57642 7.37707 8.64196 5.52163 9.65442 4.21056C10.3137 3.35682 11.1812 2.83689 12.2501 2.68282C13.3098 2.53022 14.2836 2.77869 15.1899 3.41209V3.41184ZM15.1897 6.60892C15.1912 5.38345 14.2323 4.25458 12.827 4.24871C11.5236 4.24333 10.4561 5.25995 10.4566 6.61259C10.4571 7.95643 11.5214 8.97036 12.819 8.97256C14.1746 8.97476 15.1912 7.88404 15.1897 6.60892Z" fill="white"/>
<path d="M19.9597 5.46027C19.9597 7.08608 19.9597 8.71213 19.9597 10.3379C19.9597 10.4465 19.9065 10.501 19.8 10.5013C19.4821 10.5013 19.1632 10.4854 18.8467 10.5057C18.5017 10.5277 18.2368 10.2262 18.2378 9.89456C18.2466 6.8425 18.2429 3.79044 18.2429 0.738381C18.2429 0.656944 18.2456 0.575262 18.2424 0.493825C18.2395 0.418746 18.2737 0.394779 18.3454 0.395024C18.8507 0.396736 19.3559 0.397225 19.8612 0.394779C19.948 0.39429 19.9609 0.438066 19.9602 0.509721C19.9582 0.778732 19.9595 1.0475 19.9595 1.31651C19.9595 2.69801 19.9595 4.07926 19.9595 5.46076L19.9597 5.46027Z" fill="white"/>
</svg>
